<svg width="300" height="164" viewBox="0 0 300 164" fill="none" xmlns="http://www.w3.org/2000/svg">
<g clip-path="url(#clip0)">
<path d="M150.963 163.557C232.31 163.557 298.255 159.18 298.255 153.78C298.255 148.381 232.31 144.004 150.963 144.004C69.6151 144.004 3.66992 148.381 3.66992 153.78C3.66992 159.18 69.6151 163.557 150.963 163.557Z" fill="#F2F2F2"/>
<path d="M145.317 46.7548C121.319 46.7548 104.089 62.1912 104.089 98.2094C104.089 139.03 121.319 149.836 145.317 149.836C169.315 149.836 187.572 138.001 187.572 98.2094C187.572 55.6736 169.315 46.7548 145.317 46.7548ZM145.475 136.286C128.854 136.286 120.17 126.509 120.17 98.2358C120.17 73.2887 129.209 60.133 145.831 60.133C162.452 60.133 171.491 68.7745 171.491 98.2358C171.491 125.796 162.097 136.286 145.475 136.286Z" fill="#2F2E41"/>
<path d="M89.7191 121.364H79.7969V92.07C79.7969 90.5141 79.1805 89.0219 78.0831 87.9216C76.9857 86.8214 75.4974 86.2034 73.9455 86.2034H71.6205C70.8521 86.2034 70.0912 86.3551 69.3813 86.6499C68.6714 86.9447 68.0263 87.3769 67.4829 87.9216C66.9396 88.4664 66.5086 89.1132 66.2145 89.8249C65.9204 90.5367 65.7691 91.2996 65.7691 92.07V121.364H37.7821C37.2063 121.364 36.6403 121.215 36.139 120.931C35.6378 120.647 35.2182 120.238 34.921 119.744C34.6238 119.249 34.4591 118.686 34.4429 118.109C34.4267 117.532 34.5595 116.961 34.8285 116.45L64.4496 60.2414C64.8189 59.5406 65.0428 58.7721 65.1077 57.9821C65.1725 57.1922 65.0771 56.3973 64.8271 55.6454C64.5771 54.8935 64.1777 54.2002 63.653 53.6073C63.1284 53.0145 62.4894 52.5343 61.7745 52.1959L60.0259 51.368C58.6682 50.7252 57.1159 50.6302 55.6903 51.1029C54.2646 51.5755 53.0748 52.5795 52.3669 53.9072L16.24 121.665C15.6248 122.819 15.303 124.107 15.303 125.415C15.303 126.46 15.5082 127.494 15.907 128.459C16.3057 129.424 16.8902 130.301 17.6269 131.04C18.3637 131.779 19.2384 132.365 20.2011 132.765C21.1637 133.164 22.1955 133.37 23.2375 133.37H65.7691V151.894C65.7691 152.817 65.9505 153.732 66.303 154.585C66.6555 155.438 67.1721 156.213 67.8234 156.866C68.4747 157.519 69.2479 158.037 70.0989 158.391C70.9499 158.744 71.8619 158.926 72.783 158.926H72.783C73.7041 158.926 74.6162 158.744 75.4671 158.391C76.3181 158.037 77.0913 157.519 77.7426 156.866C78.3939 156.213 78.9106 155.438 79.263 154.585C79.6155 153.732 79.7969 152.817 79.7969 151.894V133.37H89.7191C91.3071 133.37 92.83 132.738 93.9529 131.612C95.0758 130.486 95.7066 128.959 95.7066 127.367C95.7066 125.775 95.0758 124.248 93.9529 123.122C92.83 121.996 91.3071 121.364 89.7191 121.364Z" fill="#DC7396"/>
<path d="M273.45 121.364H263.528V92.07C263.528 90.5141 262.911 89.0219 261.814 87.9216C260.716 86.8214 259.228 86.2034 257.676 86.2034H255.351C254.583 86.2034 253.822 86.3551 253.112 86.6499C252.402 86.9447 251.757 87.3769 251.214 87.9216C250.67 88.4664 250.239 89.1132 249.945 89.8249C249.651 90.5367 249.5 91.2996 249.5 92.07V121.364H221.513C220.937 121.364 220.371 121.215 219.87 120.931C219.368 120.647 218.949 120.238 218.652 119.744C218.355 119.249 218.19 118.686 218.174 118.109C218.157 117.532 218.29 116.961 218.559 116.45L248.18 60.2414C248.55 59.5406 248.773 58.7721 248.838 57.9822C248.903 57.1922 248.808 56.3973 248.558 55.6454C248.308 54.8935 247.908 54.2002 247.384 53.6073C246.859 53.0145 246.22 52.5343 245.505 52.1959L243.757 51.368C242.399 50.7252 240.847 50.6302 239.421 51.1029C237.995 51.5755 236.805 52.5795 236.098 53.9072L199.971 121.665C199.356 122.819 199.034 124.107 199.034 125.415C199.034 127.525 199.87 129.548 201.358 131.04C202.846 132.532 204.864 133.37 206.968 133.37H249.5V151.894C249.5 153.759 250.239 155.547 251.554 156.866C252.869 158.185 254.653 158.926 256.514 158.926C258.374 158.926 260.158 158.185 261.473 156.866C262.789 155.547 263.528 153.759 263.528 151.894V133.37H273.45C275.038 133.37 276.561 132.738 277.684 131.612C278.806 130.486 279.437 128.959 279.437 127.367C279.437 125.775 278.806 124.248 277.684 123.122C276.561 121.996 275.038 121.364 273.45 121.364Z" fill="#DC7396"/>
<path d="M92.4562 117.934H82.534V88.6397C82.534 87.8693 82.3827 87.1064 82.0886 86.3946C81.7946 85.6828 81.3635 85.0361 80.8202 84.4913C80.2768 83.9466 79.6318 83.5144 78.9218 83.2196C78.2119 82.9248 77.451 82.773 76.6826 82.773H74.3576C72.8057 82.773 71.3174 83.3911 70.22 84.4913C69.1227 85.5916 68.5062 87.0838 68.5062 88.6397V117.934H40.5191C39.9434 117.934 39.3774 117.785 38.8761 117.501C38.3748 117.217 37.9552 116.808 37.658 116.313C37.3609 115.819 37.1962 115.256 37.18 114.679C37.1638 114.102 37.2966 113.53 37.5656 113.02L67.1867 56.8111C67.556 56.1103 67.7799 55.3418 67.8447 54.5518C67.9096 53.7619 67.8141 52.967 67.5641 52.2151C67.3141 51.4632 66.9148 50.7699 66.3901 50.177C65.8655 49.5841 65.2265 49.104 64.5116 48.7655L62.763 47.9377C61.4052 47.2948 59.853 47.1999 58.4273 47.6726C57.0017 48.1452 55.8119 49.1492 55.104 50.4768L18.9771 118.234C18.3619 119.388 18.04 120.676 18.04 121.985V121.985C18.04 124.095 18.876 126.118 20.364 127.61C21.852 129.102 23.8702 129.94 25.9745 129.94H68.5062V148.463C68.5062 149.387 68.6876 150.301 69.0401 151.155C69.3925 152.008 69.9092 152.783 70.5605 153.436C71.2118 154.089 71.985 154.607 72.836 154.96C73.6869 155.314 74.599 155.496 75.5201 155.496H75.5201C77.3803 155.496 79.1643 154.755 80.4797 153.436C81.7951 152.117 82.534 150.329 82.534 148.463V129.94H92.4562C93.2425 129.94 94.0211 129.785 94.7475 129.483C95.4739 129.181 96.134 128.739 96.69 128.182C97.246 127.624 97.687 126.962 97.9879 126.234C98.2888 125.506 98.4437 124.725 98.4437 123.937V123.937C98.4437 123.148 98.2888 122.368 97.9879 121.64C97.687 120.911 97.246 120.249 96.69 119.692C96.134 119.135 95.4739 118.692 94.7475 118.391C94.0211 118.089 93.2425 117.934 92.4562 117.934V117.934Z" stroke="#3F3D56" stroke-miterlimit="10"/>
<path d="M278.582 117.934H268.66V88.6397C268.66 87.0838 268.043 85.5916 266.946 84.4913C265.849 83.3911 264.36 82.773 262.808 82.773H260.483C259.715 82.773 258.954 82.9248 258.244 83.2196C257.534 83.5144 256.889 83.9466 256.346 84.4913C255.802 85.0361 255.371 85.6828 255.077 86.3946C254.783 87.1064 254.632 87.8693 254.632 88.6397V117.934H226.645C226.069 117.934 225.503 117.785 225.002 117.501C224.501 117.217 224.081 116.808 223.784 116.313C223.487 115.819 223.322 115.256 223.306 114.679C223.29 114.102 223.422 113.53 223.691 113.02L253.312 56.8111C253.682 56.1103 253.906 55.3418 253.97 54.5518C254.035 53.7619 253.94 52.967 253.69 52.2151C253.44 51.4632 253.04 50.7699 252.516 50.177C251.991 49.5841 251.352 49.104 250.637 48.7655L248.889 47.9377C247.531 47.2948 245.979 47.1999 244.553 47.6726C243.127 48.1452 241.938 49.1492 241.23 50.4768L205.103 118.234C204.488 119.388 204.166 120.676 204.166 121.985C204.166 124.095 205.002 126.118 206.49 127.61C207.978 129.102 209.996 129.94 212.1 129.94H254.632V148.463C254.632 150.329 255.371 152.117 256.686 153.436C258.002 154.755 259.786 155.496 261.646 155.496V155.496C263.506 155.496 265.29 154.755 266.605 153.436C267.921 152.117 268.66 150.329 268.66 148.463V129.94H278.582C279.368 129.94 280.147 129.785 280.873 129.483C281.6 129.181 282.26 128.739 282.816 128.182C283.372 127.624 283.813 126.962 284.114 126.234C284.414 125.506 284.569 124.725 284.569 123.937V123.937C284.569 122.345 283.939 120.818 282.816 119.692C281.693 118.566 280.17 117.934 278.582 117.934V117.934Z" stroke="#3F3D56" stroke-miterlimit="10"/>
<path d="M150.791 43.6675C126.794 43.6675 109.563 59.1039 109.563 95.1221C109.563 135.943 126.794 146.748 150.791 146.748C174.789 146.748 193.046 134.914 193.046 95.1221C193.046 52.5863 174.789 43.6675 150.791 43.6675ZM150.949 133.199C134.328 133.199 125.644 123.422 125.644 95.1485C125.644 70.2014 134.683 57.0457 151.305 57.0457C167.926 57.0457 176.965 65.6872 176.965 95.1485C176.965 122.709 167.571 133.199 150.949 133.199V133.199Z" stroke="#3F3D56" stroke-miterlimit="10"/>
<path d="M131.555 8.72096C133.545 8.72096 135.158 7.10394 135.158 5.10924C135.158 3.11455 133.545 1.49753 131.555 1.49753C129.566 1.49753 127.953 3.11455 127.953 5.10924C127.953 7.10394 129.566 8.72096 131.555 8.72096Z" fill="#2F2E41"/>
<path d="M140.342 26.251C145.922 26.251 150.446 20.3745 150.446 13.1255C150.446 5.87649 145.922 0 140.342 0C134.762 0 130.238 5.87649 130.238 13.1255C130.238 20.3745 134.762 26.251 140.342 26.251Z" fill="#2F2E41"/>
<path opacity="0.1" d="M140.342 22.2869C135.28 22.2869 131.088 17.452 130.352 11.1435C130.276 11.8014 130.238 12.4632 130.238 13.1255C130.238 20.3745 134.762 26.251 140.342 26.251C145.922 26.251 150.446 20.3745 150.446 13.1255C150.446 12.4632 150.408 11.8014 150.332 11.1435C149.596 17.452 145.404 22.2869 140.342 22.2869Z" fill="black"/>
<path d="M160.903 51.5641C160.686 52.4581 159.75 53.1741 158.714 53.6743C156.536 54.7261 153.848 55.0399 151.242 55.1452C150.577 55.1858 149.91 55.1734 149.247 55.1083C147.962 54.9837 146.757 54.4283 145.826 53.5318C145.76 53.4883 145.706 53.4288 145.668 53.3586C145.631 53.2883 145.612 53.2098 145.613 53.1303C145.615 53.0508 145.636 52.9729 145.675 52.9039C145.715 52.8349 145.771 52.777 145.839 52.7356C147.226 51.2074 149.542 50.2703 151.874 49.5956C153.643 49.084 156.728 47.7589 158.657 47.9377C160.525 48.111 161.177 50.4353 160.903 51.5641Z" fill="#3F3D56"/>
<path opacity="0.1" d="M160.903 51.5641C160.686 52.4581 159.75 53.1741 158.714 53.6743C156.536 54.7261 153.848 55.0399 151.242 55.1452C150.577 55.1858 149.91 55.1734 149.247 55.1083C147.962 54.9837 146.757 54.4283 145.826 53.5318C145.76 53.4883 145.706 53.4288 145.668 53.3586C145.631 53.2883 145.612 53.2098 145.613 53.1303C145.615 53.0508 145.636 52.9729 145.675 52.9039C145.715 52.8349 145.771 52.777 145.839 52.7356C147.226 51.2074 149.542 50.2703 151.874 49.5956C153.643 49.084 156.728 47.7589 158.657 47.9377C160.525 48.111 161.177 50.4353 160.903 51.5641Z" fill="black"/>
<path d="M133.204 44.8823C132.539 46.189 132.419 47.7069 132.869 49.1026C133.328 50.4876 134.186 51.7052 135.335 52.6011C138.153 54.8664 142.033 55.1781 145.645 55.1466C148.811 55.119 151.972 54.9018 155.112 54.4961C156.165 54.4026 157.199 54.1619 158.184 53.7809C159.363 53.2695 160.399 52.3315 160.819 51.1142C161.239 49.8969 160.941 48.4064 159.944 47.594C159.068 46.8802 157.86 46.782 156.733 46.7141L150.287 46.3257C150.924 45.6795 151.772 45.314 152.547 44.8442C153.576 44.2209 154.26 43.1744 155.008 42.2309C156.161 40.8495 157.415 39.5565 158.761 38.3628C158.97 39.5695 159.732 40.5604 160.628 41.393C161.524 42.2256 162.557 42.8959 163.488 43.6886C165.744 45.6087 167.368 48.2146 169.741 49.9877C171.373 49.5577 172.898 48.7941 174.222 47.7447L173.3 46.0701C173.223 45.8978 173.103 45.7481 172.952 45.6354C172.691 45.4745 172.355 45.5574 172.052 45.5118C171.242 45.3901 170.888 44.4525 170.57 43.6957C169.698 41.618 168.027 40.0059 166.6 38.2636C165.547 36.9774 164.613 35.5978 163.809 34.1419C163.33 33.2736 162.891 32.3695 162.241 31.6214C161.59 30.8733 160.679 30.2852 159.689 30.2831C158.814 30.2812 158.008 30.7264 157.256 31.1742C154.965 32.5381 152.762 34.0433 150.658 35.6811C149.556 36.5382 148.462 37.4438 147.17 37.9694C146.626 38.1907 146.053 38.3419 145.531 38.6112C144.617 39.0827 143.924 39.8806 143.177 40.5888C140.514 43.1148 136.868 44.7515 133.204 44.8823Z" fill="#3F3D56"/>
<path d="M146.684 26.9029C146.654 27.675 146.49 28.436 146.2 29.1518C146.052 29.5088 145.833 29.8316 145.556 30.1C145.279 30.3684 144.95 30.5767 144.589 30.7119C144.077 30.8496 143.539 30.867 143.019 30.763C142.565 30.7155 142.128 30.5661 141.74 30.3261C141.135 29.9094 140.834 29.1659 140.724 28.4383C140.614 27.7115 140.663 26.9689 140.593 26.2369C140.525 25.6456 140.412 25.0603 140.257 24.4857C140.21 24.2945 140.162 24.1042 140.114 23.914C140.068 23.7237 140.022 23.5334 139.98 23.3431C139.941 23.1643 139.905 22.9846 139.874 22.804C139.849 22.6516 139.826 22.4983 139.809 22.3442C139.794 21.8872 139.718 21.4342 139.584 20.9973C139.457 20.7139 139.299 20.4458 139.113 20.1983C139.033 20.0838 138.955 19.9693 138.884 19.8503C138.678 19.5413 138.583 19.1716 138.613 18.8012C138.621 18.7439 138.635 18.6876 138.654 18.6329C138.661 18.6118 138.669 18.5907 138.678 18.5704C138.757 18.5489 138.829 18.5083 138.889 18.4523C138.949 18.3963 138.994 18.3264 139.021 18.2488C139.051 18.0822 139.037 17.9105 138.98 17.7511C138.914 17.5285 138.824 17.3137 138.712 17.1107C138.638 16.9768 138.388 16.7354 138.386 16.5822C138.382 16.2738 138.983 16.0254 139.227 15.9039C139.97 15.5309 140.798 15.3625 141.627 15.4158C142.159 15.4519 142.735 15.6158 143.029 16.0624C143.292 16.465 143.257 16.9865 143.37 17.4543C143.381 17.5222 143.41 17.5862 143.453 17.6401C143.51 17.6925 143.583 17.7257 143.659 17.7353C143.79 17.7612 143.923 17.7666 144.055 17.7511H144.056C144.091 17.7483 144.125 17.7433 144.159 17.7361C144.365 17.6982 144.559 17.6141 144.727 17.4904C144.836 17.4613 144.946 17.4375 145.057 17.419C145.061 17.4186 145.065 17.4177 145.07 17.4164C145.51 18.8091 145.567 20.3022 145.927 21.7205C146.106 22.4261 146.361 23.1229 146.397 23.8487C146.4 23.8805 146.401 23.913 146.402 23.9456C146.407 24.1791 146.389 24.4143 146.398 24.6468C146.402 24.7516 146.413 24.8558 146.433 24.9587C146.473 25.1241 146.522 25.287 146.58 25.4467L146.583 25.4546C146.599 25.5057 146.615 25.5577 146.628 25.6097C146.638 25.6476 146.647 25.6846 146.654 25.7224L146.655 25.7251C146.72 26.1143 146.73 26.5109 146.684 26.9029Z" fill="#FBBEBE"/>
<path d="M140.518 17.7943C143.381 17.7943 145.702 15.4674 145.702 12.597C145.702 9.72654 143.381 7.39961 140.518 7.39961C137.655 7.39961 135.334 9.72654 135.334 12.597C135.334 15.4674 137.655 17.7943 140.518 17.7943Z" fill="#FBBEBE"/>
<path d="M173.429 40.9145C173.279 39.4966 172.776 38.1391 171.967 36.9663C172.102 37.768 172.236 38.5693 172.371 39.3703C172.203 39.419 172.025 39.4175 171.858 39.366C171.691 39.3146 171.543 39.2153 171.431 39.0805C171.213 38.8072 171.046 38.4965 170.938 38.1635C170.349 36.6977 169.579 35.3117 168.646 34.0382C165.346 33.7625 162.083 32.3909 159.181 30.7921C156.278 29.1941 153.562 27.2781 150.697 25.6123C150.201 25.3114 149.683 25.0464 149.149 24.8195C148.253 24.4592 147.247 24.2725 146.397 23.8488C146.34 23.8206 146.283 23.7906 146.227 23.7598C146.035 23.6551 145.853 23.5327 145.684 23.3942C145.592 23.3197 145.506 23.2397 145.424 23.1546C145 22.6601 144.664 22.0964 144.43 21.4879C143.974 20.4766 143.812 19.2566 143.356 18.2453C143.566 18.0493 143.801 17.883 144.055 17.7511H144.056C144.093 17.7317 144.13 17.7132 144.167 17.6956C144.347 17.6106 144.535 17.5419 144.727 17.4904C144.836 17.4613 144.946 17.4375 145.057 17.419C145.061 17.4186 145.065 17.4177 145.07 17.4164C145.583 17.3325 146.109 17.3742 146.603 17.5379C147.325 17.7828 147.934 18.2717 148.541 18.7342C149.528 19.4309 150.474 20.1832 151.375 20.9876C151.876 21.4685 152.332 21.9971 152.871 22.434C153.319 22.7803 153.791 23.0939 154.283 23.3722C157.197 25.1128 160.112 26.8532 163.027 28.5933C164.014 29.1826 165.001 29.772 165.966 30.3956C167.432 31.3435 168.844 32.3706 170.256 33.3969C171.089 34.0012 171.92 34.6058 172.752 35.2107C173.025 35.3852 173.264 35.6071 173.459 35.8661C173.631 36.1601 173.738 36.4879 173.773 36.8271C173.981 38.1977 173.864 39.5983 173.429 40.9145Z" fill="#FBBEBE"/>
<path d="M147.969 30.8114C147.619 32.3839 146.034 33.3344 145.206 34.7156C144.176 36.4299 144.596 38.4225 144.983 40.386C144.276 40.9965 143.57 41.6069 142.863 42.2174C142.473 42.553 142.082 42.8904 141.662 43.1873C141.05 43.5987 140.41 43.9672 139.747 44.2902C139.121 44.6126 138.496 44.9353 137.87 45.2583C137.289 45.5861 136.673 45.8479 136.033 46.0388C134.8 46.3559 133.491 46.1339 132.272 45.7666C132.128 45.7288 131.99 45.6722 131.86 45.5983C131.784 45.5528 131.718 45.4927 131.665 45.4213C131.545 45.2051 131.502 44.9546 131.542 44.7104C131.665 42.6526 132.167 40.6379 132.667 38.6383C132.934 37.4386 133.294 36.2615 133.742 35.1173C134.181 34.1369 134.686 33.1875 135.254 32.2755C135.88 31.1281 136.622 30.048 137.468 29.0523C137.88 28.669 138.226 28.2209 138.494 27.7256C138.806 27.0121 138.686 26.1937 138.749 25.4168C138.797 24.833 138.952 24.2631 139.205 23.7351V23.7342C139.34 23.4499 139.503 23.1796 139.692 22.9273C139.777 23.1264 139.862 23.3252 139.947 23.5237C140.004 23.6541 140.059 23.7842 140.114 23.914C140.186 24.0813 140.258 24.2481 140.329 24.4143C140.533 24.8918 140.738 25.3689 140.942 25.8458C141.163 26.4464 141.477 27.0081 141.873 27.5098C142.054 27.7667 142.299 27.9722 142.583 28.106C142.867 28.2399 143.181 28.2976 143.494 28.2735C143.807 28.2495 144.108 28.1445 144.368 27.9688C144.629 27.7931 144.839 27.5527 144.979 27.2711C145.275 26.7454 145.488 26.1778 145.614 25.5877C145.787 24.8691 145.811 24.1225 145.684 23.3942C145.472 21.9918 144.877 20.5595 144.445 19.2566C144.269 18.8222 144.167 18.3612 144.144 17.893C144.145 17.8403 144.15 17.7879 144.159 17.7362C144.162 17.723 144.165 17.7089 144.167 17.6956C144.347 17.6106 144.535 17.5419 144.727 17.4904C144.836 17.4613 144.946 17.4375 145.057 17.419C145.437 19.4839 145.818 21.5487 146.2 23.6136C146.208 23.662 146.218 23.7105 146.227 23.7598C146.281 24.0558 146.337 24.3518 146.398 24.6469C146.454 24.9147 146.513 25.1816 146.58 25.4467L146.583 25.4547C146.606 25.5445 146.629 25.6335 146.654 25.7225L146.655 25.7251C146.722 25.9682 146.798 26.2096 146.883 26.4474C147.4 27.8807 148.3 29.3236 147.969 30.8114Z" fill="#DC7396"/>
<path d="M169.008 52.9089C168.991 53.2118 169.05 53.5141 169.178 53.7889C169.502 54.3834 170.281 54.5185 170.954 54.5741C174.889 54.8984 178.848 54.7775 182.756 54.2136C182.968 54.1991 183.174 54.135 183.357 54.0267C183.913 53.6361 183.57 52.6843 182.963 52.3796C182.357 52.0749 181.637 52.1483 180.971 52.0163C180.31 51.8494 179.68 51.5756 179.106 51.2055C177.756 50.4279 176.426 49.6171 175.115 48.7733C174.335 48.2709 173.414 47.7347 172.535 48.0326C170.155 48.84 168.992 50.3343 169.008 52.9089Z" fill="#3F3D56"/>
<path d="M140 23.233V23.2339C139.994 23.2709 139.988 23.307 139.98 23.3431C139.97 23.403 139.959 23.4638 139.947 23.5237C139.838 24.0831 139.705 24.6398 139.551 25.193C139.129 26.7214 138.564 28.2251 138.004 29.7068C136.5 33.6797 134.995 37.6528 133.49 41.6263C133.111 42.627 132.732 43.6286 132.301 44.6091C132.157 44.9359 132.008 45.2653 131.86 45.5983C131.331 46.7902 130.824 48.0208 130.655 49.2893C130.498 50.1242 130.48 50.9794 130.601 51.8202C130.77 52.6517 131.274 53.4639 132.062 53.7714C132.446 53.922 132.997 54.1237 132.892 54.5245C132.835 54.7448 132.585 54.8522 132.361 54.8892C132.065 54.9365 131.763 54.9179 131.475 54.8348C131.187 54.7517 130.921 54.6061 130.695 54.4083C130.274 54.0339 129.951 53.4516 129.391 53.3891C129.004 53.3468 128.647 53.5793 128.292 53.7423C126.844 54.4056 125.157 53.9414 123.636 53.4701C123.756 52.8526 124.375 52.4456 124.989 52.3223C125.603 52.1981 126.238 52.2862 126.865 52.2694C127.065 52.2802 127.264 52.2288 127.435 52.1223C127.588 51.9816 127.695 51.7981 127.742 51.5955C128.146 50.3967 128.446 49.1654 128.639 47.9151C128.841 46.6087 128.926 45.2821 129.214 43.9916C129.438 42.9847 129.784 42.0095 130.081 41.0211C130.655 38.9861 131.127 36.9234 131.494 34.8407C131.68 33.9754 131.812 33.0997 131.892 32.2182C131.942 31.4871 131.918 30.7524 131.989 30.0239C132.107 29.0761 132.304 28.1399 132.578 27.2253C132.847 26.2272 133.116 25.2297 133.384 24.2328C133.782 22.7573 134.209 21.2245 135.218 20.0776C135.568 19.6738 135.997 19.3465 136.479 19.1159C136.961 18.8852 137.484 18.7562 138.018 18.7369C138.218 18.7366 138.417 18.7582 138.613 18.8012C138.645 18.8091 138.678 18.817 138.71 18.8258C138.923 18.8816 139.127 18.9664 139.317 19.0778C139.628 18.8796 139.786 18.9492 139.993 19.2548C140.174 19.5783 140.259 19.9468 140.239 20.3172C140.256 21.2947 140.176 22.2715 140 23.233Z" fill="#FBBEBE"/>
<path d="M140.342 24.4011L140.329 24.4143L140.257 24.4857L139.551 25.193L139.205 23.7351L138.018 18.7369C138.218 18.7366 138.417 18.7582 138.613 18.8012C138.621 18.7439 138.635 18.6876 138.654 18.6329L138.71 18.8258L139.113 20.1983L139.874 22.804L140 23.233V23.2339L140.342 24.4011Z" fill="#DC7396"/>
<path d="M144.825 8.45535C144.824 8.91817 144.732 9.37633 144.555 9.80365C144.378 10.231 144.118 10.6191 143.791 10.9458C143.673 11.0647 143.546 11.1747 143.412 11.2751C142.805 11.7333 142.067 11.9814 141.307 11.9817H137.092C136.161 11.9803 135.268 11.6083 134.61 10.9475C133.952 10.2866 133.582 9.39092 133.582 8.45707C133.582 7.52321 133.952 6.62753 134.61 5.96669C135.268 5.30584 136.161 4.93386 137.092 4.93242H141.307C142.239 4.93485 143.132 5.30669 143.791 5.96674C144.45 6.6268 144.821 7.52145 144.825 8.45535Z" fill="#2F2E41"/>
<path d="M148.777 8.72096C150.766 8.72096 152.379 7.10394 152.379 5.10924C152.379 3.11455 150.766 1.49753 148.777 1.49753C146.787 1.49753 145.174 3.11455 145.174 5.10924C145.174 7.10394 146.787 8.72096 148.777 8.72096Z" fill="#2F2E41"/>
<path opacity="0.1" d="M148.689 1.49754C148.645 1.49754 148.601 1.4993 148.557 1.50088C149.489 1.53485 150.371 1.92989 151.019 2.60288C151.666 3.27587 152.028 4.17434 152.028 5.10926C152.028 6.04418 151.666 6.94265 151.019 7.61564C150.371 8.28863 149.489 8.68367 148.557 8.71763C148.601 8.71921 148.645 8.72097 148.689 8.72097C149.644 8.72097 150.561 8.34045 151.236 7.66313C151.912 6.9858 152.291 6.06715 152.291 5.10926C152.291 4.15137 151.912 3.23272 151.236 2.55539C150.561 1.87806 149.644 1.49754 148.689 1.49754Z" fill="black"/>
<path opacity="0.1" d="M131.556 1.49754C131.6 1.49754 131.644 1.4993 131.688 1.50088C130.756 1.53485 129.873 1.92989 129.226 2.60288C128.579 3.27587 128.217 4.17434 128.217 5.10926C128.217 6.04418 128.579 6.94265 129.226 7.61564C129.873 8.28863 130.756 8.68367 131.688 8.71763C131.644 8.71921 131.6 8.72097 131.556 8.72097C130.601 8.72013 129.685 8.33924 129.011 7.662C128.336 6.98477 127.957 6.0666 127.957 5.10926C127.957 4.15192 128.336 3.23375 129.011 2.55651C129.685 1.87928 130.601 1.49839 131.556 1.49754Z" fill="black"/>
<path opacity="0.1" d="M143.412 11.2751C142.805 11.7333 142.067 11.9814 141.307 11.9817H137.092C136.333 11.9814 135.594 11.7333 134.988 11.2751H143.412Z" fill="black"/>
<path d="M170.632 37.4453C170.632 37.4453 171.54 40.0689 172.371 39.3703L171.709 35.941L170.632 37.4453Z" fill="#FBBEBE"/>
<path d="M281.144 117.454C281.99 117.762 282.896 117.869 283.79 117.767C284.684 117.664 285.542 117.355 286.297 116.863C287.052 116.371 287.682 115.711 288.138 114.933C288.595 114.155 288.865 113.282 288.927 112.382C288.99 111.481 288.843 110.579 288.498 109.746C288.153 108.912 287.62 108.17 286.94 107.579C286.26 106.987 285.453 106.562 284.582 106.336C283.71 106.111 282.798 106.091 281.918 106.28L282.064 109.278L280.648 106.708C279.26 107.363 278.187 108.543 277.665 109.99C277.48 110.497 277.368 111.028 277.331 111.566C277.242 112.83 277.566 114.088 278.254 115.151C278.942 116.213 279.957 117.022 281.144 117.454Z" fill="#57B894"/>
<path d="M288.147 152.236C287.647 149.686 289.812 147.425 291.95 145.955C294.088 144.485 296.586 143.041 297.316 140.547C298.364 136.963 295.241 133.68 292.81 130.849C291.007 128.748 289.458 126.441 288.197 123.974C287.691 122.985 287.226 121.952 287.093 120.848C286.901 119.259 287.411 117.678 287.923 116.163C289.632 111.114 291.459 106.107 293.404 101.143" stroke="#3F3D56" stroke-miterlimit="10"/>
<path d="M281.384 116.682C282.23 116.99 283.135 117.097 284.029 116.995C284.924 116.892 285.782 116.583 286.536 116.091C287.291 115.599 287.921 114.939 288.378 114.161C288.834 113.383 289.104 112.51 289.167 111.61C289.229 110.709 289.082 109.807 288.737 108.973C288.392 108.14 287.859 107.398 287.179 106.807C286.5 106.215 285.693 105.79 284.821 105.564C283.95 105.339 283.038 105.319 282.158 105.507L282.303 108.506L280.888 105.936C279.499 106.591 278.426 107.771 277.905 109.218C277.72 109.725 277.607 110.256 277.57 110.794C277.481 112.058 277.805 113.316 278.493 114.379C279.181 115.441 280.196 116.25 281.384 116.682V116.682Z" stroke="#3F3D56" stroke-miterlimit="10"/>
<path d="M287.436 100.108C287.768 99.1894 288.325 98.3696 289.056 97.7239C289.787 97.0782 290.669 96.6274 291.619 96.4129L292.098 99.2639L292.985 96.2696C294.216 96.2879 295.411 96.6982 296.394 97.4413C297.378 98.1843 298.101 99.2216 298.459 100.403C298.817 101.585 298.79 102.851 298.384 104.016C297.978 105.182 297.212 106.189 296.198 106.89C295.185 107.591 293.975 107.952 292.743 107.919C291.512 107.885 290.323 107.461 289.348 106.706C288.373 105.951 287.662 104.906 287.318 103.719C286.975 102.533 287.016 101.269 287.436 100.108H287.436Z" fill="#57B894"/>
<path d="M287.755 99.0782C288.087 98.1599 288.645 97.3402 289.376 96.6945C290.107 96.0488 290.988 95.5979 291.938 95.3835L292.417 98.2345L293.304 95.2402C294.536 95.2585 295.73 95.6688 296.714 96.4118C297.698 97.1548 298.421 98.1922 298.778 99.374C299.136 100.556 299.11 101.821 298.703 102.987C298.297 104.153 297.531 105.159 296.518 105.861C295.504 106.562 294.294 106.922 293.062 106.889C291.831 106.856 290.642 106.431 289.667 105.677C288.692 104.922 287.981 103.876 287.638 102.69C287.294 101.504 287.335 100.239 287.755 99.0782H287.755Z" stroke="#3F3D56" stroke-miterlimit="10"/>
<path d="M291.79 130.907C293.132 131.395 294.605 131.371 295.93 130.839C297.255 130.308 298.339 129.306 298.974 128.025C299.61 126.744 299.753 125.274 299.377 123.894C299 122.514 298.131 121.321 296.934 120.542L296.252 122.843L295.769 119.959C295.764 119.957 295.759 119.955 295.754 119.953C295.036 119.692 294.274 119.575 293.512 119.608C292.749 119.642 292.001 119.826 291.309 120.151C290.617 120.475 289.996 120.932 289.481 121.497C288.966 122.062 288.566 122.723 288.306 123.442C288.046 124.162 287.929 124.925 287.964 125.69C287.998 126.455 288.182 127.205 288.506 127.898C288.829 128.592 289.286 129.214 289.849 129.73C290.413 130.247 291.073 130.646 291.79 130.907H291.79Z" fill="#57B894"/>
<path d="M292.067 129.864C293.408 130.352 294.882 130.328 296.207 129.797C297.532 129.265 298.615 128.263 299.251 126.983C299.886 125.702 300.03 124.231 299.653 122.851C299.277 121.471 298.407 120.278 297.21 119.5L296.528 121.801L296.045 118.916C296.04 118.914 296.035 118.912 296.03 118.91C295.313 118.649 294.551 118.532 293.788 118.566C293.025 118.6 292.277 118.784 291.585 119.108C290.894 119.432 290.272 119.889 289.757 120.454C289.242 121.019 288.843 121.68 288.582 122.399C288.322 123.119 288.206 123.883 288.24 124.647C288.274 125.412 288.458 126.162 288.782 126.856C289.106 127.549 289.562 128.171 290.126 128.688C290.689 129.204 291.349 129.604 292.067 129.864H292.067Z" stroke="#3F3D56" stroke-miterlimit="10"/>
<path d="M285.74 140.583C285.971 141.899 286.646 143.095 287.652 143.971C288.658 144.847 289.934 145.35 291.266 145.395C292.597 145.44 293.904 145.024 294.967 144.218C296.029 143.412 296.783 142.264 297.101 140.966C297.42 139.669 297.283 138.302 296.715 137.093C296.147 135.884 295.182 134.908 293.982 134.329C292.781 133.749 291.418 133.6 290.122 133.908C288.825 134.216 287.674 134.962 286.86 136.02L289.449 139.928L285.912 137.854C285.637 138.737 285.579 139.673 285.74 140.583Z" fill="#57B894"/>
<path d="M285.98 139.811C286.21 141.127 286.885 142.323 287.891 143.199C288.897 144.075 290.173 144.578 291.505 144.623C292.837 144.668 294.143 144.252 295.206 143.446C296.268 142.64 297.022 141.492 297.34 140.194C297.659 138.897 297.522 137.529 296.955 136.321C296.387 135.112 295.421 134.136 294.221 133.556C293.02 132.977 291.658 132.828 290.361 133.136C289.064 133.444 287.913 134.19 287.099 135.248L289.689 139.155L286.151 137.082C285.877 137.964 285.818 138.9 285.98 139.811V139.811Z" stroke="#3F3D56" stroke-miterlimit="10"/>
<path d="M2.51517 131.647C3.07092 131.85 3.66599 131.92 4.2535 131.853C4.841 131.785 5.40487 131.582 5.90066 131.259C6.39645 130.936 6.81062 130.502 7.11051 129.991C7.4104 129.48 7.58782 128.906 7.62878 128.315C7.66974 127.723 7.57313 127.13 7.34655 126.583C7.11998 126.035 6.76964 125.548 6.32314 125.159C5.87665 124.77 5.34621 124.491 4.77363 124.343C4.20105 124.195 3.60198 124.182 3.02364 124.305L3.11922 126.276L2.18942 124.587C1.27689 125.017 0.571912 125.793 0.229424 126.743C0.107791 127.076 0.033848 127.425 0.00979948 127.779C-0.0488894 128.609 0.16394 129.436 0.616036 130.134C1.06813 130.832 1.73485 131.363 2.51517 131.647Z" fill="#57B894"/>
<path d="M7.11578 154.5C6.78756 152.824 8.2098 151.339 9.61463 150.373C11.0195 149.407 12.6609 148.459 13.1403 146.82C13.8292 144.465 11.7772 142.308 10.1801 140.448C8.99516 139.068 7.9776 137.552 7.14869 135.931C6.78832 135.295 6.54286 134.599 6.42363 133.877C6.29769 132.833 6.63221 131.795 6.96921 130.799C8.09188 127.482 9.29221 124.192 10.5702 120.931" stroke="#3F3D56" stroke-miterlimit="10"/>
<path d="M2.6724 131.14C3.22815 131.343 3.82322 131.413 4.41072 131.346C4.99822 131.278 5.56209 131.075 6.05789 130.752C6.55368 130.429 6.96784 129.995 7.26773 129.484C7.56762 128.973 7.74503 128.399 7.78599 127.807C7.82696 127.216 7.73034 126.623 7.50377 126.075C7.2772 125.528 6.92686 125.04 6.48037 124.652C6.03387 124.263 5.50343 123.984 4.93085 123.835C4.35828 123.687 3.75921 123.675 3.18087 123.798L3.27645 125.769L2.34665 124.08C1.43411 124.51 0.729139 125.285 0.38665 126.236C0.265019 126.569 0.191077 126.918 0.167027 127.272C0.108334 128.102 0.321163 128.929 0.77326 129.627C1.22536 130.325 1.89208 130.856 2.6724 131.14V131.14Z" stroke="#3F3D56" stroke-miterlimit="10"/>
<path d="M6.64912 120.25C6.86722 119.647 7.23326 119.109 7.71353 118.684C8.1938 118.26 8.77285 117.964 9.3973 117.823L9.71168 119.696L10.2945 117.729C11.1038 117.741 11.8883 118.01 12.5348 118.499C13.1813 118.987 13.6563 119.668 13.8912 120.445C14.1262 121.221 14.109 122.053 13.842 122.819C13.575 123.585 13.0722 124.246 12.406 124.707C11.7398 125.167 10.9448 125.404 10.1358 125.382C9.3267 125.361 8.54546 125.082 7.90484 124.586C7.26421 124.09 6.79734 123.403 6.57163 122.623C6.34592 121.844 6.37306 121.013 6.64912 120.25Z" fill="#57B894"/>
<path d="M6.85884 119.574C7.07693 118.971 7.44298 118.432 7.92325 118.008C8.40352 117.584 8.98256 117.287 9.60702 117.147L9.92139 119.02L10.5042 117.052C11.3135 117.064 12.098 117.334 12.7445 117.822C13.391 118.31 13.866 118.992 14.1009 119.768C14.3359 120.545 14.3187 121.376 14.0517 122.142C13.7847 122.908 13.2819 123.569 12.6157 124.03C11.9495 124.491 11.1545 124.728 10.3455 124.706C9.53642 124.684 8.75518 124.405 8.11455 123.909C7.47392 123.414 7.00705 122.726 6.78135 121.947C6.55564 121.168 6.58277 120.337 6.85884 119.574V119.574Z" stroke="#3F3D56" stroke-miterlimit="10"/>
<path d="M9.50973 140.486C10.3911 140.807 11.3593 140.791 12.2297 140.442C13.1002 140.093 13.8121 139.434 14.2297 138.593C14.6473 137.751 14.7414 136.785 14.4942 135.878C14.2469 134.972 13.6755 134.188 12.8888 133.676L12.441 135.188L12.1234 133.293C12.1203 133.292 12.117 133.29 12.1137 133.289C11.6423 133.117 11.1417 133.04 10.6405 133.063C10.1394 133.085 9.64752 133.206 9.19303 133.419C8.73854 133.631 8.33035 133.932 7.99177 134.303C7.6532 134.674 7.39089 135.109 7.21982 135.581C7.04876 136.054 6.9723 136.556 6.99481 137.059C7.01733 137.561 7.13837 138.054 7.35103 138.509C7.5637 138.965 7.8638 139.374 8.2342 139.713C8.6046 140.052 9.03804 140.315 9.50973 140.486Z" fill="#57B894"/>
<path d="M9.69152 139.801C10.5729 140.122 11.5411 140.106 12.4115 139.757C13.282 139.407 13.9939 138.749 14.4115 137.908C14.8291 137.066 14.9232 136.1 14.6759 135.193C14.4287 134.287 13.8573 133.503 13.0706 132.991L12.6228 134.503L12.3052 132.608C12.3021 132.606 12.2988 132.605 12.2955 132.604C11.8242 132.433 11.3238 132.356 10.8229 132.379C10.322 132.401 9.83044 132.522 9.37626 132.735C8.459 133.165 7.7497 133.943 7.4044 134.897C7.05909 135.852 7.10606 136.904 7.53498 137.824C7.9639 138.744 8.73963 139.455 9.69152 139.801V139.801Z" stroke="#3F3D56" stroke-miterlimit="10"/>
<path d="M5.53497 146.843C5.68651 147.708 6.12994 148.494 6.79088 149.07C7.45183 149.645 8.29009 149.975 9.1651 150.005C10.0401 150.035 10.8986 149.762 11.5967 149.232C12.2948 148.702 12.7899 147.948 12.9991 147.095C13.2083 146.243 13.1189 145.344 12.7457 144.55C12.3726 143.756 11.7385 143.115 10.9497 142.734C10.161 142.353 9.26555 142.256 8.41364 142.458C7.56173 142.661 6.80513 143.15 6.27074 143.846L7.97188 146.413L5.64748 145.05C5.46726 145.63 5.42867 146.245 5.53497 146.843Z" fill="#57B894"/>
<path d="M5.6922 146.336C5.84374 147.201 6.28717 147.987 6.94811 148.562C7.60905 149.138 8.44732 149.468 9.32232 149.498C10.1973 149.527 11.0559 149.254 11.7539 148.725C12.452 148.195 12.9472 147.44 13.1564 146.588C13.3656 145.736 13.2761 144.837 12.903 144.043C12.5298 143.249 11.8957 142.608 11.1069 142.227C10.3182 141.846 9.42278 141.748 8.57087 141.951C7.71895 142.153 6.96236 142.643 6.42796 143.338L8.12911 145.906L5.80471 144.543C5.62448 145.123 5.5859 145.738 5.6922 146.336V146.336Z" stroke="#3F3D56" stroke-miterlimit="10"/>
<path d="M134.294 95.4961C136.915 95.4961 139.04 92.7386 139.04 89.3371C139.04 85.9356 136.915 83.1782 134.294 83.1782C131.672 83.1782 129.547 85.9356 129.547 89.3371C129.547 92.7386 131.672 95.4961 134.294 95.4961Z" fill="#2F2E41"/>
<path d="M160.122 95.6361C162.744 95.6361 164.869 92.8786 164.869 89.4771C164.869 86.0756 162.744 83.3182 160.122 83.3182C157.5 83.3182 155.375 86.0756 155.375 89.4771C155.375 92.8786 157.5 95.6361 160.122 95.6361Z" fill="#2F2E41"/>
<path d="M156.492 107.674C156.492 110.457 152.616 112.713 147.836 112.713C143.056 112.713 139.18 110.457 139.18 107.674C139.18 105.264 142.087 103.248 145.971 102.755C146.589 102.673 147.212 102.633 147.836 102.635C148.881 102.632 149.923 102.744 150.944 102.971C154.188 103.696 156.492 105.53 156.492 107.674Z" fill="#2F2E41"/>
<path d="M135.41 94.0963C138.032 94.0963 140.157 91.3389 140.157 87.9374C140.157 84.5359 138.032 81.7784 135.41 81.7784C132.789 81.7784 130.664 84.5359 130.664 87.9374C130.664 91.3389 132.789 94.0963 135.41 94.0963Z" stroke="#3F3D56" stroke-miterlimit="10"/>
<path d="M161.239 94.2363C163.86 94.2363 165.986 91.4788 165.986 88.0774C165.986 84.6759 163.86 81.9184 161.239 81.9184C158.617 81.9184 156.492 84.6759 156.492 88.0774C156.492 91.4788 158.617 94.2363 161.239 94.2363Z" stroke="#3F3D56" stroke-miterlimit="10"/>
<path d="M148.953 111.313C153.734 111.313 157.609 109.057 157.609 106.274C157.609 103.491 153.734 101.235 148.953 101.235C144.172 101.235 140.297 103.491 140.297 106.274C140.297 109.057 144.172 111.313 148.953 111.313Z" stroke="#3F3D56" stroke-miterlimit="10"/>
<path d="M151.047 103.391C151.049 103.743 150.918 104.082 150.679 104.34C150.566 104.464 150.428 104.563 150.276 104.631C150.123 104.698 149.958 104.734 149.791 104.735H146.998C146.654 104.723 146.329 104.574 146.093 104.323C145.858 104.071 145.732 103.736 145.742 103.391C145.74 103.118 145.82 102.851 145.971 102.623C146.589 102.536 147.212 102.493 147.836 102.495C148.882 102.491 149.926 102.612 150.944 102.853C151.013 103.024 151.048 103.207 151.047 103.391Z" fill="white"/>
<path d="M135.41 87.6574C136.181 87.6574 136.806 87.0307 136.806 86.2577C136.806 85.4846 136.181 84.8579 135.41 84.8579C134.639 84.8579 134.014 85.4846 134.014 86.2577C134.014 87.0307 134.639 87.6574 135.41 87.6574Z" fill="white"/>
<path d="M161.379 87.6574C162.15 87.6574 162.775 87.0307 162.775 86.2577C162.775 85.4846 162.15 84.8579 161.379 84.8579C160.607 84.8579 159.982 85.4846 159.982 86.2577C159.982 87.0307 160.607 87.6574 161.379 87.6574Z" fill="white"/>
<path opacity="0.3" d="M162.775 100.815C163.546 100.815 164.171 100.188 164.171 99.4154C164.171 98.6424 163.546 98.0157 162.775 98.0157C162.003 98.0157 161.378 98.6424 161.378 99.4154C161.378 100.188 162.003 100.815 162.775 100.815Z" fill="#DC7396"/>
<path opacity="0.3" d="M128.709 100.815C129.48 100.815 130.105 100.188 130.105 99.4154C130.105 98.6424 129.48 98.0157 128.709 98.0157C127.938 98.0157 127.313 98.6424 127.313 99.4154C127.313 100.188 127.938 100.815 128.709 100.815Z" fill="#DC7396"/>
</g>
<defs>
<clipPath id="clip0">
<rect width="300" height="163.557" fill="white"/>
</clipPath>
</defs>
</svg>
