<?xml version="1.0" encoding="utf-8"?>
<!-- Generator: Adobe Illustrator 24.0.1, SVG Export Plug-In . SVG Version: 6.00 Build 0)  -->
<svg version="1.1" id="Camada_1" xmlns="http://www.w3.org/2000/svg" xmlns:xlink="http://www.w3.org/1999/xlink" x="0px" y="0px"
	 viewBox="0 0 337.82 116.86" style="enable-background:new 0 0 337.82 116.86;" xml:space="preserve">
<style type="text/css">
	.st0{enable-background:new    ;}
	.st1{clip-path:url(#SVGID_2_);enable-background:new    ;}
	.st2{fill:#067793;}
	.st3{fill:#067B98;}
	.st4{clip-path:url(#SVGID_4_);enable-background:new    ;}
	.st5{fill:#067C99;}
	.st6{clip-path:url(#SVGID_6_);enable-background:new    ;}
	.st7{fill:#056178;}
	.st8{fill:#055D73;}
	.st9{clip-path:url(#SVGID_8_);enable-background:new    ;}
	.st10{fill:#06738F;}
	.st11{fill:#05708A;}
	.st12{clip-path:url(#SVGID_10_);enable-background:new    ;}
	.st13{fill:#056C85;}
	.st14{fill:#056881;}
	.st15{fill:#05647C;}
	.st16{clip-path:url(#SVGID_12_);enable-background:new    ;}
	.st17{fill:#067C9A;}
	.st18{clip-path:url(#SVGID_14_);enable-background:new    ;}
	.st19{clip-path:url(#SVGID_16_);enable-background:new    ;}
	.st20{clip-path:url(#SVGID_18_);enable-background:new    ;}
	.st21{clip-path:url(#SVGID_20_);enable-background:new    ;}
	.st22{clip-path:url(#SVGID_22_);enable-background:new    ;}
	.st23{clip-path:url(#SVGID_24_);enable-background:new    ;}
	.st24{clip-path:url(#SVGID_26_);enable-background:new    ;}
	.st25{clip-path:url(#SVGID_28_);enable-background:new    ;}
	.st26{clip-path:url(#SVGID_30_);enable-background:new    ;}
	.st27{clip-path:url(#SVGID_32_);enable-background:new    ;}
	.st28{clip-path:url(#SVGID_34_);enable-background:new    ;}
	.st29{clip-path:url(#SVGID_36_);enable-background:new    ;}
	.st30{clip-path:url(#SVGID_38_);enable-background:new    ;}
	.st31{clip-path:url(#SVGID_40_);enable-background:new    ;}
	.st32{clip-path:url(#SVGID_42_);enable-background:new    ;}
	.st33{clip-path:url(#SVGID_44_);enable-background:new    ;}
	.st34{clip-path:url(#SVGID_46_);enable-background:new    ;}
	.st35{clip-path:url(#SVGID_48_);enable-background:new    ;}
	.st36{clip-path:url(#SVGID_50_);enable-background:new    ;}
	.st37{fill:url(#SVGID_51_);}
	.st38{fill:url(#SVGID_52_);}
	.st39{fill:url(#SVGID_53_);}
	.st40{fill:url(#SVGID_54_);}
	.st41{fill:url(#SVGID_55_);}
	.st42{clip-path:url(#SVGID_57_);enable-background:new    ;}
	.st43{fill:#A3566E;}
	.st44{fill:#A85872;}
	.st45{fill:#AC5B75;}
	.st46{fill:#7F4356;}
	.st47{clip-path:url(#SVGID_59_);enable-background:new    ;}
	.st48{fill:#9D536B;}
	.st49{fill:#985067;}
	.st50{fill:#934E64;}
	.st51{fill:#8E4B60;}
	.st52{fill:#89485D;}
	.st53{fill:#844659;}
	.st54{fill:#AC5B74;}
	.st55{clip-path:url(#SVGID_61_);enable-background:new    ;}
	.st56{clip-path:url(#SVGID_63_);enable-background:new    ;}
	.st57{clip-path:url(#SVGID_65_);enable-background:new    ;}
	.st58{clip-path:url(#SVGID_67_);enable-background:new    ;}
	.st59{clip-path:url(#SVGID_69_);enable-background:new    ;}
	.st60{clip-path:url(#SVGID_71_);enable-background:new    ;}
	.st61{clip-path:url(#SVGID_73_);enable-background:new    ;}
	.st62{clip-path:url(#SVGID_75_);enable-background:new    ;}
	.st63{clip-path:url(#SVGID_77_);enable-background:new    ;}
	.st64{fill:url(#SVGID_78_);}
	.st65{fill:url(#SVGID_79_);}
	.st66{clip-path:url(#SVGID_81_);enable-background:new    ;}
	.st67{clip-path:url(#SVGID_83_);enable-background:new    ;}
	.st68{clip-path:url(#SVGID_85_);enable-background:new    ;}
	.st69{clip-path:url(#SVGID_87_);enable-background:new    ;}
	.st70{clip-path:url(#SVGID_89_);enable-background:new    ;}
	.st71{fill:url(#SVGID_90_);}
	.st72{clip-path:url(#SVGID_92_);enable-background:new    ;}
</style>
<g>
	<g class="st0">
		<defs>
			<path id="SVGID_1_" class="st0" d="M54.12,33.49l2.38,4.46c0.16,0.29,0.29,0.6,0.4,0.92c0.33,0.96,0.54,2.01,0.63,3.15
				l-2.38-4.46c-0.09-1.14-0.3-2.18-0.63-3.15C54.41,34.08,54.27,33.78,54.12,33.49z"/>
		</defs>
		<clipPath id="SVGID_2_">
			<use xlink:href="#SVGID_1_"  style="overflow:visible;"/>
		</clipPath>
		<g class="st1">
			<path class="st2" d="M54.12,33.49l2.38,4.46c0.16,0.29,0.29,0.6,0.4,0.92c0.01,0.03,0.02,0.07,0.03,0.1l-2.38-4.46
				c-0.01-0.03-0.02-0.07-0.03-0.1C54.41,34.08,54.27,33.78,54.12,33.49"/>
			<path class="st3" d="M54.55,34.51l2.38,4.46c0.31,0.94,0.51,1.95,0.59,3.05l-2.38-4.46C55.06,36.46,54.86,35.44,54.55,34.51"/>
		</g>
	</g>
	<g class="st0">
		<defs>
			<path id="SVGID_3_" class="st0" d="M55.14,37.55l2.38,4.46c0.11,0.84,0.2,1.84,0.29,3c0.09,1.16,0.26,2.92,0.51,5.29
				c0.25,2.37,0.59,5.56,1.03,9.59c0.44,4.02,1.03,9.32,1.79,15.88l-2.38-4.46c-0.76-6.56-1.35-11.86-1.79-15.88
				c-0.44-4.02-0.78-7.22-1.03-9.59c-0.25-2.37-0.42-4.13-0.51-5.29C55.35,39.39,55.25,38.39,55.14,37.55z"/>
		</defs>
		<clipPath id="SVGID_4_">
			<use xlink:href="#SVGID_3_"  style="overflow:visible;"/>
		</clipPath>
		<g class="st4">
			<path class="st3" d="M55.14,37.55l2.38,4.46c0.11,0.84,0.2,1.84,0.29,3c0.09,1.16,0.26,2.92,0.51,5.29
				c0.25,2.37,0.59,5.56,1.03,9.59c0.44,4.02,1.03,9.32,1.79,15.88l-2.38-4.46c-0.76-6.56-1.35-11.86-1.79-15.88
				c-0.44-4.02-0.78-7.22-1.03-9.59c-0.25-2.37-0.42-4.13-0.51-5.29C55.35,39.39,55.25,38.39,55.14,37.55"/>
		</g>
	</g>
	<g>
		<polygon class="st5" points="101.04,40.66 103.42,45.12 96.73,64.66 94.34,60.21 		"/>
	</g>
	<g class="st0">
		<defs>
			<path id="SVGID_5_" class="st0" d="M50.97,83.5l-2.38-4.46c0.13,0.24,0.27,0.48,0.42,0.71c0.52,0.79,1.18,1.42,2,1.89
				c0.82,0.47,1.86,0.7,3.14,0.7l2.38,4.46c-1.28,0-2.32-0.23-3.14-0.7c-0.82-0.47-1.49-1.1-2-1.89
				C51.24,83.98,51.1,83.75,50.97,83.5z"/>
		</defs>
		<clipPath id="SVGID_6_">
			<use xlink:href="#SVGID_5_"  style="overflow:visible;"/>
		</clipPath>
		<g class="st6">
			<path class="st7" d="M54.15,82.34l2.38,4.46c-1.28,0-2.32-0.23-3.14-0.7c-0.82-0.47-1.49-1.1-2-1.89
				c-0.15-0.23-0.29-0.46-0.42-0.71l-2.38-4.46c0.13,0.24,0.27,0.48,0.42,0.71c0.52,0.79,1.18,1.42,2,1.89
				C51.83,82.11,52.87,82.34,54.15,82.34"/>
		</g>
	</g>
	<g>
		<polygon class="st8" points="62.2,82.34 64.58,86.8 56.53,86.8 54.15,82.34 		"/>
	</g>
	<g class="st0">
		<defs>
			<path id="SVGID_7_" class="st0" d="M84.38,33.01l2.38,4.46c0.32,0.6,0.46,1.32,0.41,2.18c-0.07,1.18-0.51,3-1.34,5.44
				c-0.83,2.44-1.87,5.22-3.11,8.33c-1.25,3.11-2.62,6.35-4.11,9.73c-1.5,3.38-2.97,6.58-4.41,9.59c-1.45,3.01-2.76,5.65-3.94,7.92
				c-1.17,2.27-2.04,3.85-2.6,4.74l-2.38-4.46c0.56-0.89,1.43-2.47,2.6-4.74c1.18-2.27,2.49-4.91,3.94-7.92
				c1.45-3.01,2.92-6.2,4.41-9.59c1.49-3.38,2.86-6.62,4.11-9.73c1.25-3.11,2.29-5.89,3.11-8.33c0.83-2.44,1.27-4.26,1.34-5.44
				C84.84,34.33,84.7,33.61,84.38,33.01z"/>
		</defs>
		<clipPath id="SVGID_8_">
			<use xlink:href="#SVGID_7_"  style="overflow:visible;"/>
		</clipPath>
		<g class="st9">
			<path class="st2" d="M84.38,33.01l2.38,4.46c0.09,0.16,0.16,0.34,0.22,0.52l-2.38-4.46C84.54,33.35,84.47,33.17,84.38,33.01"/>
			<path class="st3" d="M84.6,33.53l2.38,4.46c0.16,0.49,0.22,1.04,0.19,1.66c-0.01,0.18-0.03,0.37-0.06,0.58l-2.38-4.46
				c0.03-0.21,0.05-0.4,0.06-0.58C84.83,34.57,84.76,34.01,84.6,33.53"/>
			<path class="st2" d="M84.73,35.76l2.38,4.46c-0.15,1.17-0.58,2.79-1.28,4.86c-0.42,1.25-0.9,2.59-1.44,4.02l-2.38-4.46
				c0.53-1.43,1.01-2.76,1.44-4.02C84.15,38.55,84.58,36.93,84.73,35.76"/>
			<path class="st10" d="M82.01,44.64l2.38,4.46c-0.51,1.36-1.07,2.8-1.68,4.31c-1.25,3.11-2.62,6.35-4.11,9.73
				c-1.5,3.38-2.97,6.58-4.41,9.59c-1.45,3.01-2.76,5.65-3.94,7.92c-0.76,1.47-1.39,2.65-1.9,3.54l-2.38-4.46
				c0.5-0.89,1.14-2.07,1.9-3.54c1.18-2.27,2.49-4.91,3.94-7.92c1.45-3.01,2.92-6.2,4.41-9.59c1.49-3.38,2.86-6.62,4.11-9.73
				C80.94,47.44,81.5,46,82.01,44.64"/>
			<path class="st11" d="M65.98,79.74l2.38,4.46c-0.27,0.48-0.51,0.88-0.71,1.2l-2.38-4.46C65.47,80.62,65.7,80.22,65.98,79.74"/>
		</g>
	</g>
	<g class="st0">
		<defs>
			<path id="SVGID_9_" class="st0" d="M65.27,80.94l2.38,4.46c-0.62,0.94-1.64,1.41-3.07,1.41l-2.38-4.46
				C63.63,82.34,64.65,81.87,65.27,80.94z"/>
		</defs>
		<clipPath id="SVGID_10_">
			<use xlink:href="#SVGID_9_"  style="overflow:visible;"/>
		</clipPath>
		<g class="st12">
			<path class="st11" d="M65.27,80.94l2.38,4.46c-0.04,0.06-0.08,0.12-0.12,0.18l-2.38-4.46C65.19,81.05,65.23,81,65.27,80.94"/>
			<path class="st13" d="M65.14,81.11l2.38,4.46c-0.08,0.1-0.16,0.2-0.25,0.29L64.9,81.4C64.98,81.31,65.07,81.21,65.14,81.11"/>
			<path class="st14" d="M64.9,81.4l2.38,4.46c-0.09,0.09-0.19,0.18-0.29,0.25l-2.38-4.46C64.71,81.57,64.81,81.49,64.9,81.4"/>
			<path class="st15" d="M64.61,81.65l2.38,4.46c-0.12,0.09-0.25,0.18-0.39,0.25l-2.38-4.46C64.35,81.83,64.48,81.74,64.61,81.65"/>
			<path class="st7" d="M64.21,81.9l2.38,4.46c-0.54,0.29-1.22,0.44-2.02,0.44l-2.38-4.46C63,82.34,63.67,82.2,64.21,81.9"/>
		</g>
	</g>
	<g class="st0">
		<defs>
			<path id="SVGID_11_" class="st0" d="M77.74,83.87l-2.38-4.46c0.05,0.1,0.12,0.2,0.18,0.3c0.43,0.62,0.97,1.12,1.64,1.52
				c0.67,0.4,1.43,0.68,2.29,0.85c0.86,0.18,1.7,0.26,2.52,0.26l2.38,4.46c-0.82,0-1.66-0.08-2.52-0.26
				c-0.86-0.17-1.62-0.45-2.29-0.85c-0.67-0.4-1.21-0.9-1.64-1.52C77.85,84.08,77.79,83.98,77.74,83.87z"/>
		</defs>
		<clipPath id="SVGID_12_">
			<use xlink:href="#SVGID_11_"  style="overflow:visible;"/>
		</clipPath>
		<g class="st16">
			<path class="st7" d="M81.98,82.34l2.38,4.46c-0.82,0-1.66-0.08-2.52-0.26c-0.86-0.17-1.62-0.45-2.29-0.85
				c-0.67-0.4-1.21-0.9-1.64-1.52c-0.07-0.1-0.13-0.19-0.18-0.3l-2.38-4.46c0.05,0.1,0.12,0.2,0.18,0.3
				c0.43,0.62,0.97,1.12,1.64,1.52c0.67,0.4,1.43,0.68,2.29,0.85C80.32,82.26,81.16,82.34,81.98,82.34"/>
		</g>
	</g>
	<g>
		<polygon class="st8" points="104.31,70.94 106.7,75.4 93.36,75.4 90.98,70.94 		"/>
	</g>
	<g>
		<polygon class="st17" points="90.98,70.94 93.36,75.4 90.25,85.62 87.87,81.16 		"/>
	</g>
	<g>
		<polygon class="st8" points="86.04,82.34 88.42,86.8 84.36,86.8 81.98,82.34 		"/>
	</g>
	<g class="st0">
		<defs>
			<path id="SVGID_13_" class="st0" d="M87.87,81.16l2.38,4.46c-0.3,0.79-0.91,1.18-1.83,1.18l-2.38-4.46
				C86.96,82.34,87.57,81.95,87.87,81.16z"/>
		</defs>
		<clipPath id="SVGID_14_">
			<use xlink:href="#SVGID_13_"  style="overflow:visible;"/>
		</clipPath>
		<g class="st18">
			<path class="st10" d="M87.87,81.16l2.38,4.46c-0.04,0.11-0.09,0.21-0.14,0.3l-2.38-4.46C87.78,81.36,87.83,81.26,87.87,81.16"/>
			<path class="st11" d="M87.73,81.46l2.38,4.46c-0.04,0.08-0.09,0.15-0.14,0.21l-2.38-4.46C87.64,81.6,87.69,81.53,87.73,81.46"/>
			<path class="st13" d="M87.59,81.67l2.38,4.46c-0.04,0.06-0.09,0.11-0.14,0.16l-2.38-4.46C87.5,81.78,87.55,81.73,87.59,81.67"/>
			<path class="st14" d="M87.45,81.83l2.38,4.46c-0.05,0.05-0.1,0.1-0.16,0.14l-2.38-4.46C87.35,81.93,87.4,81.88,87.45,81.83"/>
			<path class="st15" d="M87.29,81.97l2.38,4.46c-0.07,0.05-0.14,0.1-0.22,0.14l-2.38-4.46C87.15,82.07,87.22,82.03,87.29,81.97"/>
			<path class="st7" d="M87.07,82.11l2.38,4.46c-0.28,0.15-0.63,0.23-1.03,0.23l-2.38-4.46C86.44,82.34,86.79,82.26,87.07,82.11"/>
		</g>
	</g>
	<g class="st0">
		<defs>
			<path id="SVGID_15_" class="st0" d="M110.88,33.12l2.38,4.46c0.3,0.56,0.55,1.18,0.76,1.84c0.3,0.99,0.55,2,0.75,3.04
				c1.59,7.99,2.91,14.58,3.94,19.77c1.04,5.18,1.85,9.37,2.44,12.55c0.59,3.18,0.99,5.54,1.21,7.07l-2.38-4.46
				c-0.22-1.53-0.62-3.89-1.21-7.07c-0.59-3.18-1.4-7.37-2.44-12.55c-1.03-5.18-2.35-11.77-3.94-19.77
				c-0.2-1.04-0.45-2.05-0.75-3.04C111.43,34.3,111.18,33.68,110.88,33.12z"/>
		</defs>
		<clipPath id="SVGID_16_">
			<use xlink:href="#SVGID_15_"  style="overflow:visible;"/>
		</clipPath>
		<g class="st19">
			<path class="st2" d="M110.88,33.12l2.38,4.46c0.27,0.5,0.49,1.03,0.68,1.61l-2.38-4.46C111.37,34.15,111.14,33.62,110.88,33.12"
				/>
			<path class="st3" d="M111.56,34.72l2.38,4.46c0.03,0.08,0.05,0.16,0.08,0.24c0.3,0.99,0.55,2,0.75,3.04
				c1.59,7.99,2.91,14.58,3.94,19.77c1.04,5.18,1.85,9.37,2.44,12.55c0.59,3.18,0.99,5.54,1.21,7.07l-2.38-4.46
				c-0.22-1.53-0.62-3.89-1.21-7.07c-0.59-3.18-1.4-7.37-2.44-12.55c-1.03-5.18-2.35-11.77-3.94-19.77
				c-0.2-1.04-0.45-2.05-0.75-3.04C111.61,34.88,111.58,34.8,111.56,34.72"/>
		</g>
	</g>
	<g class="st0">
		<defs>
			<path id="SVGID_17_" class="st0" d="M108.18,83.25l-2.38-4.46c0.09,0.18,0.2,0.35,0.3,0.51c0.63,0.99,1.59,1.74,2.86,2.26
				c1.28,0.52,3.01,0.78,5.21,0.78l2.38,4.46c-2.2,0-3.93-0.26-5.21-0.78c-1.27-0.52-2.23-1.27-2.86-2.26
				C108.38,83.6,108.28,83.43,108.18,83.25z"/>
		</defs>
		<clipPath id="SVGID_18_">
			<use xlink:href="#SVGID_17_"  style="overflow:visible;"/>
		</clipPath>
		<g class="st20">
			<path class="st7" d="M114.18,82.34l2.38,4.46c-2.2,0-3.93-0.26-5.21-0.78c-1.27-0.52-2.23-1.27-2.86-2.26
				c-0.11-0.17-0.21-0.34-0.3-0.51l-2.38-4.46c0.09,0.18,0.2,0.35,0.3,0.51c0.63,0.99,1.59,1.74,2.86,2.26
				C110.24,82.08,111.98,82.34,114.18,82.34"/>
		</g>
	</g>
	<g>
		<polygon class="st8" points="118.08,82.34 120.47,86.8 116.56,86.8 114.18,82.34 		"/>
	</g>
	<g class="st0">
		<defs>
			<path id="SVGID_19_" class="st0" d="M119.97,77.38l2.38,4.46c0.22,1.53,0.31,2.59,0.28,3.18c-0.04,0.69-0.23,1.16-0.58,1.41
				c-0.35,0.25-0.88,0.37-1.59,0.37l-2.38-4.46c0.72,0,1.25-0.12,1.59-0.37c0.35-0.24,0.54-0.71,0.58-1.41
				C120.29,79.97,120.19,78.91,119.97,77.38z"/>
		</defs>
		<clipPath id="SVGID_20_">
			<use xlink:href="#SVGID_19_"  style="overflow:visible;"/>
		</clipPath>
		<g class="st21">
			<path class="st3" d="M119.97,77.38l2.38,4.46c0.22,1.53,0.31,2.59,0.28,3.18c-0.01,0.1-0.01,0.19-0.03,0.28l-2.38-4.46
				c0.01-0.09,0.02-0.18,0.03-0.28C120.29,79.97,120.19,78.91,119.97,77.38"/>
			<path class="st2" d="M120.23,80.85l2.38,4.46c-0.03,0.2-0.07,0.38-0.13,0.54l-2.38-4.46C120.16,81.23,120.2,81.05,120.23,80.85"
				/>
			<path class="st10" d="M120.1,81.38l2.38,4.46c-0.03,0.08-0.06,0.15-0.1,0.22L120,81.61C120.04,81.54,120.07,81.46,120.1,81.38"/>
			<path class="st11" d="M120,81.61l2.38,4.46c-0.03,0.05-0.06,0.1-0.09,0.14l-2.38-4.46C119.94,81.7,119.97,81.66,120,81.61"/>
			<path class="st13" d="M119.91,81.75l2.38,4.46c-0.03,0.04-0.06,0.07-0.09,0.11l-2.38-4.46
				C119.84,81.82,119.88,81.79,119.91,81.75"/>
			<path class="st14" d="M119.81,81.86l2.38,4.46c-0.03,0.03-0.07,0.07-0.11,0.09l-2.38-4.46
				C119.74,81.92,119.78,81.89,119.81,81.86"/>
			<path class="st15" d="M119.7,81.95l2.38,4.46c-0.01,0.01-0.02,0.01-0.03,0.02c-0.05,0.04-0.1,0.07-0.16,0.1l-2.38-4.46
				c0.06-0.03,0.11-0.06,0.16-0.1C119.69,81.96,119.69,81.96,119.7,81.95"/>
			<path class="st7" d="M119.52,82.07l2.38,4.46c-0.34,0.18-0.82,0.27-1.44,0.27l-2.38-4.46C118.7,82.34,119.18,82.25,119.52,82.07"
				/>
		</g>
	</g>
	<g class="st0">
		<defs>
			<path id="SVGID_21_" class="st0" d="M165.85,35.53l2.38,4.46c0.04,0.08,0.08,0.16,0.12,0.24c0.71,1.43,1.02,3.04,0.92,4.81
				c-0.16,2.86-1.26,5.02-3.28,6.48c-2.03,1.45-4.8,2.18-8.33,2.18c-1.13,0-1.8-0.09-2.02-0.26c-0.07-0.06-0.13-0.13-0.18-0.22
				l-2.38-4.46c0.05,0.09,0.11,0.17,0.18,0.22c0.22,0.17,0.89,0.26,2.02,0.26c3.52,0,6.3-0.73,8.33-2.18
				c2.02-1.46,3.12-3.62,3.28-6.48c0.1-1.78-0.21-3.38-0.92-4.81C165.94,35.69,165.9,35.61,165.85,35.53z"/>
		</defs>
		<clipPath id="SVGID_22_">
			<use xlink:href="#SVGID_21_"  style="overflow:visible;"/>
		</clipPath>
		<g class="st22">
			<path class="st2" d="M165.85,35.53l2.38,4.46c0.04,0.08,0.08,0.16,0.12,0.24c0.18,0.37,0.34,0.76,0.47,1.15l-2.38-4.46
				c-0.13-0.4-0.29-0.78-0.47-1.15C165.94,35.69,165.9,35.61,165.85,35.53"/>
			<path class="st3" d="M166.45,36.92l2.38,4.46c0.37,1.13,0.52,2.35,0.44,3.66c-0.02,0.3-0.04,0.59-0.08,0.88l-2.38-4.46
				c0.04-0.28,0.06-0.58,0.08-0.88C166.97,39.27,166.82,38.05,166.45,36.92"/>
			<path class="st2" d="M166.81,41.46l2.38,4.46c-0.1,0.75-0.27,1.44-0.51,2.09l-2.38-4.46C166.55,42.91,166.72,42.21,166.81,41.46"
				/>
			<path class="st10" d="M166.31,43.55l2.38,4.46c-0.15,0.39-0.32,0.76-0.52,1.11l-2.38-4.46
				C165.99,44.31,166.16,43.94,166.31,43.55"/>
			<path class="st11" d="M165.79,44.66l2.38,4.46c-0.17,0.29-0.35,0.57-0.55,0.83l-2.38-4.46
				C165.44,45.23,165.62,44.95,165.79,44.66"/>
			<path class="st13" d="M165.24,45.5l2.38,4.46c-0.19,0.25-0.4,0.5-0.63,0.73l-2.38-4.46C164.84,45.99,165.05,45.75,165.24,45.5"/>
			<path class="st14" d="M164.61,46.22l2.38,4.46c-0.25,0.25-0.51,0.48-0.8,0.7l-2.38-4.46C164.09,46.71,164.36,46.47,164.61,46.22"
				/>
			<path class="st15" d="M163.81,46.93l2.38,4.46c-0.06,0.05-0.13,0.09-0.19,0.14c-0.33,0.24-0.68,0.46-1.05,0.65l-2.38-4.46
				c0.37-0.2,0.72-0.42,1.05-0.65C163.68,47.02,163.75,46.97,163.81,46.93"/>
			<path class="st7" d="M162.56,47.72l2.38,4.46c-1.9,1.02-4.32,1.53-7.27,1.53c-1.13,0-1.8-0.09-2.02-0.26
				c-0.07-0.06-0.13-0.13-0.18-0.22l-2.38-4.46c0.05,0.09,0.11,0.17,0.18,0.22c0.22,0.17,0.89,0.26,2.02,0.26
				C158.24,49.25,160.66,48.74,162.56,47.72"/>
		</g>
	</g>
	<g class="st0">
		<defs>
			<path id="SVGID_23_" class="st0" d="M152.31,41.98l2.38,4.46c-0.2-0.37-0.45-0.68-0.77-0.94c-0.54-0.44-1.42-0.67-2.65-0.67
				c-2.5,0-4.54,0.69-6.1,2.07c-1.56,1.38-2.78,3.06-3.66,5.03c-0.88,1.98-1.48,4.01-1.8,6.11c-0.32,2.1-0.52,3.86-0.6,5.29
				c-0.13,2.37-0.09,4.36,0.12,5.96c0.22,1.61,0.59,2.91,1.12,3.92c0.01,0.02,0.02,0.04,0.03,0.07l-2.38-4.46
				c-0.01-0.02-0.02-0.04-0.03-0.07c-0.53-1.01-0.9-2.32-1.12-3.92c-0.21-1.6-0.26-3.59-0.12-5.96c0.08-1.43,0.28-3.19,0.6-5.29
				c0.32-2.1,0.92-4.13,1.8-6.11c0.88-1.97,2.1-3.65,3.66-5.03c1.56-1.38,3.59-2.07,6.1-2.07c1.23,0,2.11,0.22,2.65,0.67
				C151.86,41.3,152.11,41.61,152.31,41.98z"/>
		</defs>
		<clipPath id="SVGID_24_">
			<use xlink:href="#SVGID_23_"  style="overflow:visible;"/>
		</clipPath>
		<g class="st23">
			<path class="st7" d="M152.31,41.98l2.38,4.46c-0.2-0.37-0.45-0.68-0.77-0.94c-0.54-0.44-1.42-0.67-2.65-0.67
				c-1.78,0-3.32,0.35-4.63,1.05l-2.38-4.46c1.3-0.7,2.85-1.05,4.63-1.05c1.23,0,2.11,0.22,2.65,0.67
				C151.86,41.3,152.11,41.61,152.31,41.98"/>
			<path class="st15" d="M144.27,41.41l2.38,4.46c-0.37,0.2-0.71,0.42-1.04,0.67l-2.38-4.46C143.55,41.83,143.9,41.61,144.27,41.41"
				/>
			<path class="st14" d="M143.23,42.08l2.38,4.46c-0.15,0.11-0.29,0.23-0.43,0.35c-0.23,0.21-0.46,0.42-0.68,0.64l-2.38-4.46
				c0.22-0.22,0.44-0.43,0.68-0.64C142.94,42.31,143.08,42.2,143.23,42.08"/>
			<path class="st13" d="M142.12,43.08l2.38,4.46c-0.44,0.44-0.84,0.91-1.22,1.4l-2.38-4.46C141.28,43.98,141.68,43.52,142.12,43.08
				"/>
			<path class="st11" d="M140.9,44.48l2.38,4.46c-0.4,0.52-0.76,1.07-1.09,1.66l-2.38-4.46C140.14,45.55,140.51,45,140.9,44.48"/>
			<path class="st10" d="M139.81,46.13l2.38,4.46c-0.24,0.43-0.47,0.88-0.67,1.34c-0.2,0.46-0.39,0.91-0.56,1.37l-2.38-4.46
				c0.17-0.46,0.36-0.92,0.56-1.37C139.35,47.01,139.57,46.56,139.81,46.13"/>
			<path class="st2" d="M138.58,48.85l2.38,4.46c-0.58,1.54-0.99,3.12-1.24,4.73c-0.1,0.62-0.18,1.21-0.25,1.78l-2.38-4.46
				c0.07-0.56,0.16-1.16,0.25-1.78C137.59,51.97,138,50.39,138.58,48.85"/>
			<path class="st3" d="M137.08,55.36l2.38,4.46c-0.18,1.34-0.29,2.51-0.35,3.52c-0.13,2.37-0.09,4.36,0.12,5.96
				c0.13,0.98,0.32,1.85,0.57,2.61l-2.38-4.46c-0.25-0.76-0.44-1.63-0.57-2.61c-0.21-1.6-0.26-3.59-0.12-5.96
				C136.79,57.87,136.91,56.69,137.08,55.36"/>
			<path class="st2" d="M137.43,67.45l2.38,4.46c0.16,0.48,0.34,0.92,0.55,1.31c0.01,0.02,0.02,0.04,0.03,0.07l-2.38-4.46
				c-0.01-0.02-0.02-0.04-0.03-0.07C137.77,68.36,137.59,67.93,137.43,67.45"/>
		</g>
	</g>
	<g class="st0">
		<defs>
			<path id="SVGID_25_" class="st0" d="M127.32,80.59l-2.38-4.46c0.39,0.73,0.82,1.4,1.28,1.99c1.38,1.78,3,3.05,4.84,3.81
				c1.85,0.77,3.77,1.15,5.76,1.15c3.42,0,6.08-0.63,7.96-1.89c1.89-1.26,3.16-2.73,3.81-4.41l2.38,4.46
				c-0.66,1.68-1.93,3.15-3.81,4.41c-1.88,1.26-4.54,1.89-7.96,1.89c-1.99,0-3.91-0.38-5.76-1.15c-1.85-0.76-3.46-2.04-4.84-3.81
				C128.14,81.98,127.71,81.32,127.32,80.59z"/>
		</defs>
		<clipPath id="SVGID_26_">
			<use xlink:href="#SVGID_25_"  style="overflow:visible;"/>
		</clipPath>
		<g class="st24">
			<path class="st10" d="M148.6,76.79l2.38,4.46c-0.13,0.34-0.29,0.66-0.47,0.98l-2.38-4.46C148.31,77.45,148.47,77.12,148.6,76.79"
				/>
			<path class="st11" d="M148.13,77.77l2.38,4.46c-0.18,0.32-0.39,0.63-0.62,0.94l-2.38-4.46C147.74,78.4,147.95,78.09,148.13,77.77
				"/>
			<path class="st13" d="M147.51,78.71l2.38,4.46c-0.24,0.32-0.51,0.63-0.81,0.93l-2.38-4.46C147,79.34,147.27,79.03,147.51,78.71"
				/>
			<path class="st14" d="M146.7,79.64l2.38,4.46c-0.36,0.36-0.75,0.7-1.18,1.03l-2.38-4.46C145.95,80.34,146.35,80,146.7,79.64"/>
			<path class="st15" d="M145.52,80.67l2.38,4.46c-0.23,0.18-0.48,0.35-0.73,0.52c-0.22,0.15-0.46,0.29-0.7,0.42l-2.38-4.46
				c0.25-0.13,0.48-0.27,0.7-0.42C145.04,81.02,145.29,80.85,145.52,80.67"/>
			<path class="st7" d="M144.08,81.62l2.38,4.46c-1.82,0.98-4.24,1.47-7.26,1.47c-1.99,0-3.91-0.38-5.76-1.15
				c-1.85-0.76-3.46-2.04-4.84-3.81c-0.46-0.6-0.89-1.26-1.28-1.99l-2.38-4.46c0.39,0.73,0.82,1.4,1.28,1.99
				c1.38,1.78,3,3.05,4.84,3.81c1.85,0.77,3.77,1.15,5.76,1.15C139.84,83.08,142.26,82.59,144.08,81.62"/>
		</g>
	</g>
	<g class="st0">
		<defs>
			<path id="SVGID_27_" class="st0" d="M151.62,83.86l-2.38-4.46c0.26,0.49,0.6,0.94,1.02,1.35c1.09,1.06,2.96,1.59,5.62,1.59
				l2.38,4.46c-2.66,0-4.53-0.53-5.62-1.59C152.22,84.8,151.88,84.35,151.62,83.86z"/>
		</defs>
		<clipPath id="SVGID_28_">
			<use xlink:href="#SVGID_27_"  style="overflow:visible;"/>
		</clipPath>
		<g class="st25">
			<path class="st7" d="M155.88,82.34l2.38,4.46c-2.66,0-4.53-0.53-5.62-1.59c-0.42-0.41-0.76-0.86-1.02-1.35l-2.38-4.46
				c0.26,0.49,0.6,0.94,1.02,1.35C151.35,81.81,153.22,82.34,155.88,82.34"/>
		</g>
	</g>
	<g class="st0">
		<defs>
			<path id="SVGID_29_" class="st0" d="M163,59.03l2.38,4.46c0.31,0.58,0.51,1.29,0.59,2.14c0.1,0.99,0.1,2.2,0.02,3.63
				c-0.06,0.99-0.17,2.3-0.34,3.92c-0.17,1.63-0.36,3.28-0.58,4.96c-0.23,1.68-0.45,3.22-0.68,4.63c-0.23,1.41-0.42,2.38-0.55,2.92
				l-2.38-4.46c0.13-0.54,0.32-1.52,0.55-2.92c0.23-1.41,0.46-2.95,0.68-4.63c0.22-1.68,0.42-3.33,0.58-4.96
				c0.17-1.63,0.28-2.94,0.34-3.92c0.08-1.43,0.07-2.64-0.02-3.63C163.5,60.32,163.31,59.61,163,59.03z"/>
		</defs>
		<clipPath id="SVGID_30_">
			<use xlink:href="#SVGID_29_"  style="overflow:visible;"/>
		</clipPath>
		<g class="st26">
			<path class="st2" d="M163,59.03l2.38,4.46c0.12,0.22,0.22,0.46,0.3,0.72l-2.38-4.46C163.22,59.49,163.12,59.25,163,59.03"/>
			<path class="st3" d="M163.3,59.75l2.38,4.46c0.14,0.42,0.23,0.9,0.29,1.42c0.1,0.99,0.1,2.2,0.02,3.63
				c-0.06,0.99-0.17,2.3-0.34,3.92c-0.17,1.63-0.36,3.28-0.58,4.96c0,0.01,0,0.02,0,0.03l-2.38-4.46c0-0.01,0-0.02,0-0.03
				c0.22-1.68,0.42-3.33,0.58-4.96c0.17-1.63,0.28-2.94,0.34-3.92c0.08-1.43,0.07-2.64-0.02-3.63
				C163.54,60.64,163.44,60.17,163.3,59.75"/>
			<path class="st2" d="M162.69,73.71l2.38,4.46c-0.22,1.67-0.45,3.2-0.68,4.6c-0.23,1.41-0.42,2.38-0.55,2.92l-2.38-4.46
				c0.13-0.54,0.32-1.52,0.55-2.92C162.24,76.91,162.46,75.38,162.69,73.71"/>
		</g>
	</g>
	<g>
		<polygon class="st8" points="160.09,82.34 162.48,86.8 158.26,86.8 155.88,82.34 		"/>
	</g>
	<g class="st0">
		<defs>
			<path id="SVGID_31_" class="st0" d="M161.46,81.23l2.38,4.46c-0.13,0.44-0.27,0.74-0.43,0.89c-0.16,0.15-0.47,0.22-0.93,0.22
				l-2.38-4.46c0.46,0,0.77-0.07,0.93-0.22C161.19,81.97,161.33,81.68,161.46,81.23z"/>
		</defs>
		<clipPath id="SVGID_32_">
			<use xlink:href="#SVGID_31_"  style="overflow:visible;"/>
		</clipPath>
		<g class="st27">
			<path class="st2" d="M161.46,81.23l2.38,4.46c-0.03,0.12-0.07,0.23-0.11,0.32l-2.38-4.46C161.39,81.46,161.43,81.35,161.46,81.23
				"/>
			<path class="st10" d="M161.35,81.56l2.38,4.46c-0.05,0.13-0.1,0.23-0.15,0.32l-2.38-4.46C161.26,81.79,161.31,81.68,161.35,81.56
				"/>
			<path class="st11" d="M161.21,81.88l2.38,4.46c-0.03,0.05-0.06,0.1-0.09,0.14l-2.38-4.46C161.15,81.98,161.18,81.93,161.21,81.88
				"/>
			<path class="st13" d="M161.12,82.02l2.38,4.46c-0.02,0.03-0.05,0.06-0.07,0.08l-2.38-4.46
				C161.07,82.07,161.09,82.05,161.12,82.02"/>
			<path class="st14" d="M161.05,82.1l2.38,4.46c-0.01,0.01-0.01,0.01-0.02,0.02c-0.01,0.01-0.02,0.02-0.03,0.03l-2.38-4.46
				c0.01-0.01,0.02-0.02,0.03-0.03C161.03,82.11,161.04,82.1,161.05,82.1"/>
			<path class="st15" d="M160.99,82.15l2.38,4.46c-0.02,0.02-0.05,0.04-0.08,0.05l-2.38-4.46
				C160.94,82.18,160.97,82.17,160.99,82.15"/>
			<path class="st7" d="M160.91,82.2l2.38,4.46c-0.18,0.1-0.45,0.14-0.82,0.14l-2.38-4.46C160.46,82.34,160.73,82.29,160.91,82.2"/>
		</g>
	</g>
	<g>
		<polygon class="st5" points="192.26,40.66 194.65,45.12 187.95,64.66 185.57,60.21 		"/>
	</g>
	<g class="st0">
		<defs>
			<path id="SVGID_33_" class="st0" d="M168.96,83.87l-2.38-4.46c0.05,0.1,0.12,0.2,0.18,0.3c0.43,0.62,0.97,1.12,1.64,1.52
				c0.67,0.4,1.43,0.68,2.29,0.85c0.86,0.18,1.7,0.26,2.51,0.26l2.38,4.46c-0.82,0-1.66-0.08-2.51-0.26
				c-0.86-0.17-1.62-0.45-2.29-0.85c-0.67-0.4-1.22-0.9-1.64-1.52C169.07,84.08,169.01,83.98,168.96,83.87z"/>
		</defs>
		<clipPath id="SVGID_34_">
			<use xlink:href="#SVGID_33_"  style="overflow:visible;"/>
		</clipPath>
		<g class="st28">
			<path class="st7" d="M173.2,82.34l2.38,4.46c-0.82,0-1.66-0.08-2.51-0.26c-0.86-0.17-1.62-0.45-2.29-0.85
				c-0.67-0.4-1.22-0.9-1.64-1.52c-0.07-0.1-0.13-0.19-0.18-0.3l-2.38-4.46c0.05,0.1,0.12,0.2,0.18,0.3
				c0.43,0.62,0.97,1.12,1.64,1.52c0.67,0.4,1.43,0.68,2.29,0.85C171.54,82.26,172.38,82.34,173.2,82.34"/>
		</g>
	</g>
	<g>
		<polygon class="st8" points="195.54,70.94 197.92,75.4 184.58,75.4 182.2,70.94 		"/>
	</g>
	<g>
		<polygon class="st17" points="182.2,70.94 184.58,75.4 181.48,85.62 179.1,81.16 		"/>
	</g>
	<g>
		<polygon class="st8" points="177.27,82.34 179.65,86.8 175.59,86.8 173.2,82.34 		"/>
	</g>
	<g class="st0">
		<defs>
			<path id="SVGID_35_" class="st0" d="M179.1,81.16l2.38,4.46c-0.3,0.79-0.91,1.18-1.83,1.18l-2.38-4.46
				C178.18,82.34,178.79,81.95,179.1,81.16z"/>
		</defs>
		<clipPath id="SVGID_36_">
			<use xlink:href="#SVGID_35_"  style="overflow:visible;"/>
		</clipPath>
		<g class="st29">
			<path class="st10" d="M179.1,81.16l2.38,4.46c-0.04,0.11-0.09,0.21-0.14,0.3l-2.38-4.46C179.01,81.37,179.05,81.27,179.1,81.16"
				/>
			<path class="st11" d="M178.95,81.46l2.38,4.46c-0.04,0.07-0.09,0.14-0.14,0.21l-2.38-4.46C178.87,81.6,178.91,81.53,178.95,81.46
				"/>
			<path class="st13" d="M178.82,81.67l2.38,4.46c-0.04,0.06-0.09,0.11-0.14,0.16l-2.38-4.46
				C178.73,81.78,178.77,81.73,178.82,81.67"/>
			<path class="st14" d="M178.68,81.83l2.38,4.46c-0.05,0.05-0.1,0.1-0.16,0.14l-2.38-4.46C178.57,81.93,178.62,81.88,178.68,81.83"
				/>
			<path class="st15" d="M178.51,81.97l2.38,4.46c-0.07,0.05-0.14,0.1-0.22,0.14l-2.38-4.46C178.38,82.07,178.45,82.03,178.51,81.97
				"/>
			<path class="st7" d="M178.3,82.11l2.38,4.46c-0.28,0.15-0.63,0.23-1.03,0.23l-2.38-4.46C177.67,82.34,178.01,82.26,178.3,82.11"
				/>
		</g>
	</g>
	<g class="st0">
		<defs>
			<path id="SVGID_37_" class="st0" d="M202.11,33.13l2.38,4.46c0.3,0.56,0.55,1.17,0.75,1.83c0.3,0.99,0.55,2,0.75,3.04
				c1.59,7.99,2.91,14.58,3.94,19.77c1.03,5.18,1.85,9.37,2.44,12.55c0.59,3.18,0.99,5.54,1.21,7.07l-2.38-4.46
				c-0.22-1.53-0.62-3.89-1.21-7.07c-0.59-3.18-1.4-7.37-2.44-12.55c-1.04-5.18-2.35-11.77-3.94-19.77
				c-0.2-1.04-0.45-2.05-0.75-3.04C202.66,34.3,202.41,33.69,202.11,33.13z"/>
		</defs>
		<clipPath id="SVGID_38_">
			<use xlink:href="#SVGID_37_"  style="overflow:visible;"/>
		</clipPath>
		<g class="st30">
			<path class="st2" d="M202.11,33.13l2.38,4.46c0.26,0.49,0.49,1.03,0.68,1.6l-2.38-4.46C202.6,34.16,202.37,33.62,202.11,33.13"/>
			<path class="st3" d="M202.79,34.73l2.38,4.46c0.03,0.08,0.05,0.15,0.07,0.23c0.3,0.99,0.55,2,0.75,3.04
				c1.59,7.99,2.91,14.58,3.94,19.77c1.03,5.18,1.85,9.37,2.44,12.55c0.59,3.18,0.99,5.54,1.21,7.07l-2.38-4.46
				c-0.22-1.53-0.62-3.89-1.21-7.07c-0.59-3.18-1.4-7.37-2.44-12.55c-1.04-5.18-2.35-11.77-3.94-19.77
				c-0.2-1.04-0.45-2.05-0.75-3.04C202.84,34.88,202.81,34.81,202.79,34.73"/>
		</g>
	</g>
	<g class="st0">
		<defs>
			<path id="SVGID_39_" class="st0" d="M199.41,83.24l-2.38-4.46c0.1,0.18,0.2,0.35,0.31,0.52c0.63,0.99,1.59,1.74,2.86,2.26
				c1.27,0.52,3.01,0.78,5.21,0.78l2.38,4.46c-2.2,0-3.93-0.26-5.21-0.78c-1.28-0.52-2.23-1.27-2.86-2.26
				C199.6,83.6,199.5,83.42,199.41,83.24z"/>
		</defs>
		<clipPath id="SVGID_40_">
			<use xlink:href="#SVGID_39_"  style="overflow:visible;"/>
		</clipPath>
		<g class="st31">
			<path class="st7" d="M205.4,82.34l2.38,4.46c-2.2,0-3.93-0.26-5.21-0.78c-1.28-0.52-2.23-1.27-2.86-2.26
				c-0.11-0.17-0.21-0.34-0.31-0.52l-2.38-4.46c0.1,0.18,0.2,0.35,0.31,0.52c0.63,0.99,1.59,1.74,2.86,2.26
				C201.46,82.08,203.2,82.34,205.4,82.34"/>
		</g>
	</g>
	<g>
		<polygon class="st8" points="209.31,82.34 211.69,86.8 207.78,86.8 205.4,82.34 		"/>
	</g>
	<g class="st0">
		<defs>
			<path id="SVGID_41_" class="st0" d="M211.2,77.38l2.38,4.46c0.22,1.53,0.31,2.59,0.28,3.18c-0.04,0.69-0.23,1.16-0.58,1.41
				c-0.35,0.25-0.88,0.37-1.59,0.37l-2.38-4.46c0.71,0,1.24-0.12,1.59-0.37c0.35-0.24,0.54-0.71,0.58-1.41
				C211.51,79.97,211.42,78.91,211.2,77.38z"/>
		</defs>
		<clipPath id="SVGID_42_">
			<use xlink:href="#SVGID_41_"  style="overflow:visible;"/>
		</clipPath>
		<g class="st32">
			<path class="st3" d="M211.2,77.38l2.38,4.46c0.22,1.53,0.31,2.59,0.28,3.18c-0.01,0.1-0.01,0.19-0.03,0.28l-2.38-4.46
				c0.01-0.09,0.02-0.18,0.03-0.28C211.51,79.97,211.42,78.91,211.2,77.38"/>
			<path class="st2" d="M211.45,80.85l2.38,4.46c-0.03,0.2-0.07,0.38-0.13,0.54l-2.38-4.46C211.38,81.23,211.43,81.05,211.45,80.85"
				/>
			<path class="st10" d="M211.33,81.38l2.38,4.46c-0.03,0.08-0.06,0.15-0.1,0.22l-2.38-4.46C211.26,81.54,211.3,81.46,211.33,81.38"
				/>
			<path class="st11" d="M211.22,81.61l2.38,4.46c-0.03,0.05-0.06,0.1-0.09,0.14l-2.38-4.46C211.16,81.7,211.19,81.66,211.22,81.61"
				/>
			<path class="st13" d="M211.13,81.75l2.38,4.46c-0.03,0.04-0.06,0.07-0.09,0.11l-2.38-4.46C211.07,81.82,211.1,81.79,211.13,81.75
				"/>
			<path class="st14" d="M211.04,81.86l2.38,4.46c-0.03,0.03-0.07,0.07-0.11,0.09l-2.38-4.46C210.97,81.92,211,81.89,211.04,81.86"
				/>
			<path class="st15" d="M210.93,81.95l2.38,4.46c-0.01,0.01-0.02,0.01-0.03,0.02c-0.05,0.04-0.1,0.07-0.16,0.1l-2.38-4.46
				c0.06-0.03,0.11-0.06,0.16-0.1C210.91,81.96,210.92,81.96,210.93,81.95"/>
			<path class="st7" d="M210.74,82.07l2.38,4.46c-0.34,0.18-0.82,0.27-1.43,0.27l-2.38-4.46C209.92,82.34,210.4,82.25,210.74,82.07"
				/>
		</g>
	</g>
	<g class="st0">
		<defs>
			<path id="SVGID_43_" class="st0" d="M240.49,42.39l2.38,4.46c-0.27-0.5-0.63-0.94-1.1-1.32c-0.64-0.52-1.54-0.78-2.72-0.78
				c-1.64,0-3.12,0.48-4.45,1.44c-1.33,0.96-2.04,2.21-2.13,3.74c-0.04,0.78,0.1,1.48,0.42,2.09l-2.38-4.46
				c-0.33-0.61-0.47-1.31-0.42-2.09c0.09-1.53,0.8-2.78,2.13-3.74c1.33-0.96,2.81-1.44,4.45-1.44c1.18,0,2.08,0.26,2.72,0.78
				C239.85,41.45,240.22,41.89,240.49,42.39z"/>
		</defs>
		<clipPath id="SVGID_44_">
			<use xlink:href="#SVGID_43_"  style="overflow:visible;"/>
		</clipPath>
		<g class="st33">
			<path class="st7" d="M240.49,42.39l2.38,4.46c-0.27-0.5-0.63-0.94-1.1-1.32c-0.64-0.52-1.54-0.78-2.72-0.78
				c-1.28,0-2.46,0.29-3.55,0.88l-2.38-4.46c1.09-0.58,2.27-0.88,3.55-0.88c1.18,0,2.08,0.26,2.72,0.78
				C239.85,41.45,240.22,41.89,240.49,42.39"/>
			<path class="st15" d="M233.12,41.17l2.38,4.46c-0.31,0.17-0.61,0.35-0.9,0.56c-0.05,0.04-0.1,0.07-0.15,0.11l-2.38-4.46
				c0.05-0.04,0.1-0.07,0.15-0.11C232.51,41.52,232.82,41.33,233.12,41.17"/>
			<path class="st14" d="M232.08,41.84l2.38,4.46c-0.22,0.17-0.42,0.35-0.61,0.53l-2.38-4.46
				C231.65,42.19,231.86,42.01,232.08,41.84"/>
			<path class="st13" d="M231.47,42.37l2.38,4.46c-0.16,0.16-0.31,0.33-0.44,0.5l-2.38-4.46C231.16,42.7,231.31,42.53,231.47,42.37"
				/>
			<path class="st11" d="M231.03,42.88l2.38,4.46c-0.13,0.17-0.25,0.35-0.35,0.53l-2.38-4.46C230.79,43.22,230.9,43.04,231.03,42.88
				"/>
			<path class="st10" d="M230.68,43.4l2.38,4.46c-0.12,0.2-0.21,0.42-0.3,0.64l-2.38-4.46C230.47,43.82,230.57,43.61,230.68,43.4"/>
			<path class="st2" d="M230.39,44.04l2.38,4.46c-0.12,0.33-0.21,0.68-0.26,1.05l-2.38-4.46C230.18,44.72,230.26,44.37,230.39,44.04
				"/>
			<path class="st3" d="M230.13,45.09l2.38,4.46c-0.02,0.13-0.03,0.26-0.04,0.39c-0.03,0.55,0.03,1.06,0.18,1.53L230.28,47
				c-0.15-0.47-0.21-0.98-0.18-1.53C230.1,45.34,230.11,45.21,230.13,45.09"/>
			<path class="st2" d="M230.28,47l2.38,4.46c0.06,0.2,0.14,0.38,0.24,0.56l-2.38-4.46C230.42,47.39,230.34,47.2,230.28,47"/>
		</g>
	</g>
	<g class="st0">
		<defs>
			<path id="SVGID_45_" class="st0" d="M251.86,34.57l2.38,4.46c0.83,1.56,1.19,3.37,1.08,5.42c-0.16,2.76-1.07,4.88-2.74,6.33
				c-1.67,1.45-3.98,2.18-6.94,2.18c-0.92,0-1.5-0.09-1.75-0.26c-0.08-0.06-0.15-0.13-0.2-0.23l-2.38-4.46
				c0.05,0.09,0.12,0.17,0.2,0.23c0.25,0.17,0.83,0.26,1.75,0.26c2.96,0,5.28-0.73,6.94-2.18c1.67-1.45,2.58-3.57,2.74-6.33
				C253.06,37.94,252.7,36.14,251.86,34.57z"/>
		</defs>
		<clipPath id="SVGID_46_">
			<use xlink:href="#SVGID_45_"  style="overflow:visible;"/>
		</clipPath>
		<g class="st34">
			<path class="st2" d="M251.86,34.57l2.38,4.46c0.24,0.45,0.44,0.92,0.6,1.41l-2.38-4.46C252.3,35.49,252.1,35.02,251.86,34.57"/>
			<path class="st3" d="M252.47,35.98l2.38,4.46c0.4,1.21,0.56,2.55,0.48,4.01c-0.02,0.34-0.05,0.67-0.09,0.98l-2.38-4.46
				c0.04-0.32,0.07-0.65,0.09-0.98C253.02,38.53,252.86,37.2,252.47,35.98"/>
			<path class="st2" d="M252.85,40.98l2.38,4.46c-0.11,0.83-0.29,1.58-0.55,2.28l-2.38-4.46C252.56,42.56,252.74,41.81,252.85,40.98
				"/>
			<path class="st10" d="M252.3,43.26l2.38,4.46c-0.15,0.41-0.33,0.79-0.53,1.15l-2.38-4.46C251.97,44.05,252.15,43.67,252.3,43.26"
				/>
			<path class="st11" d="M251.76,44.41l2.38,4.46c-0.17,0.3-0.35,0.58-0.55,0.84l-2.38-4.46C251.41,44.99,251.6,44.71,251.76,44.41"
				/>
			<path class="st13" d="M251.21,45.25l2.38,4.46c-0.19,0.25-0.4,0.49-0.62,0.71l-2.38-4.46C250.81,45.74,251.02,45.5,251.21,45.25"
				/>
			<path class="st14" d="M250.59,45.96l2.38,4.46c-0.12,0.12-0.25,0.24-0.38,0.36c-0.12,0.11-0.25,0.21-0.38,0.31l-2.38-4.46
				c0.13-0.1,0.26-0.2,0.38-0.31C250.34,46.21,250.47,46.09,250.59,45.96"/>
			<path class="st15" d="M249.82,46.64l2.38,4.46c-0.33,0.25-0.68,0.48-1.06,0.68l-2.38-4.46C249.14,47.12,249.5,46.89,249.82,46.64
				"/>
			<path class="st7" d="M248.77,47.32l2.38,4.46c-1.48,0.79-3.32,1.19-5.51,1.19c-0.92,0-1.5-0.09-1.75-0.26
				c-0.08-0.06-0.15-0.13-0.2-0.23l-2.38-4.46c0.05,0.09,0.12,0.17,0.2,0.23c0.25,0.17,0.83,0.26,1.75,0.26
				C245.45,48.51,247.29,48.11,248.77,47.32"/>
		</g>
	</g>
	<g class="st0">
		<defs>
			<path id="SVGID_47_" class="st0" d="M235.89,65.87l2.38,4.46c-0.21-0.4-0.52-0.76-0.91-1.07c-0.93-0.74-2.12-1.42-3.57-2.04
				c-1.45-0.62-3.01-1.26-4.68-1.92c-1.68-0.67-3.22-1.58-4.64-2.74c-1.25-1.02-2.28-2.3-3.1-3.83L219,54.27
				c0.82,1.53,1.85,2.81,3.1,3.83c1.42,1.16,2.96,2.07,4.64,2.74c1.67,0.67,3.24,1.31,4.68,1.92c1.45,0.62,2.64,1.3,3.57,2.04
				C235.38,65.11,235.68,65.47,235.89,65.87z"/>
		</defs>
		<clipPath id="SVGID_48_">
			<use xlink:href="#SVGID_47_"  style="overflow:visible;"/>
		</clipPath>
		<g class="st35">
			<path class="st7" d="M235.89,65.87l2.38,4.46c-0.21-0.4-0.52-0.76-0.91-1.07c-0.93-0.74-2.12-1.42-3.57-2.04
				c-1.45-0.62-3.01-1.26-4.68-1.92c-1.68-0.67-3.22-1.58-4.64-2.74c-1.25-1.02-2.28-2.3-3.1-3.83L219,54.27
				c0.82,1.53,1.85,2.81,3.1,3.83c1.42,1.16,2.96,2.07,4.64,2.74c1.67,0.67,3.24,1.31,4.68,1.92c1.45,0.62,2.64,1.3,3.57,2.04
				C235.38,65.11,235.68,65.47,235.89,65.87"/>
		</g>
	</g>
	<g class="st0">
		<defs>
			<path id="SVGID_49_" class="st0" d="M248.99,60.58l2.38,4.46c0.02,0.04,0.04,0.07,0.06,0.11c0.95,1.8,1.34,4.09,1.19,6.85
				c-0.12,2.17-0.61,4.21-1.46,6.11c-0.85,1.9-2.04,3.55-3.58,4.96c-1.53,1.41-3.44,2.5-5.71,3.29c-2.27,0.79-4.88,1.18-7.85,1.18
				c-2.56,0-4.91-0.27-7.05-0.82c-2.14-0.54-3.99-1.22-5.56-2.04c-1.56-0.82-2.78-1.7-3.64-2.66c-0.37-0.41-0.66-0.81-0.87-1.19
				l-2.38-4.46c0.2,0.38,0.49,0.78,0.87,1.19c0.86,0.96,2.08,1.85,3.64,2.66c1.57,0.82,3.42,1.49,5.56,2.04
				c2.14,0.54,4.49,0.82,7.05,0.82c2.96,0,5.58-0.4,7.85-1.18c2.27-0.79,4.17-1.89,5.71-3.29c1.54-1.41,2.73-3.06,3.58-4.96
				c0.85-1.9,1.33-3.93,1.46-6.11c0.16-2.76-0.24-5.04-1.19-6.85C249.03,60.65,249.01,60.62,248.99,60.58z"/>
		</defs>
		<clipPath id="SVGID_50_">
			<use xlink:href="#SVGID_49_"  style="overflow:visible;"/>
		</clipPath>
		<g class="st36">
			<path class="st2" d="M248.99,60.58l2.38,4.46c0.02,0.04,0.04,0.07,0.06,0.11c0.24,0.45,0.44,0.93,0.6,1.43l-2.38-4.46
				c-0.17-0.51-0.37-0.99-0.6-1.43C249.03,60.65,249.01,60.62,248.99,60.58"/>
			<path class="st3" d="M249.65,62.12l2.38,4.46c0.51,1.53,0.7,3.34,0.58,5.41c-0.03,0.47-0.07,0.92-0.13,1.38l-2.38-4.46
				c0.06-0.45,0.1-0.91,0.13-1.38C250.35,65.46,250.16,63.66,249.65,62.12"/>
			<path class="st2" d="M250.11,68.91l2.38,4.46c-0.17,1.31-0.48,2.57-0.94,3.78l-2.38-4.46C249.62,71.48,249.94,70.22,250.11,68.91
				"/>
			<path class="st10" d="M249.17,72.69l2.38,4.46c-0.12,0.32-0.25,0.64-0.39,0.96c-0.2,0.45-0.42,0.88-0.65,1.3l-2.38-4.46
				c0.24-0.42,0.46-0.85,0.65-1.3C248.92,73.33,249.05,73.01,249.17,72.69"/>
			<path class="st11" d="M248.12,74.94l2.38,4.46c-0.33,0.59-0.7,1.14-1.11,1.68l-2.38-4.46C247.42,76.09,247.79,75.53,248.12,74.94
				"/>
			<path class="st13" d="M247.02,76.62l2.38,4.46c-0.39,0.51-0.82,1.01-1.28,1.47l-2.38-4.46C246.2,77.62,246.63,77.13,247.02,76.62
				"/>
			<path class="st14" d="M245.74,78.09l2.38,4.46c-0.17,0.18-0.35,0.35-0.54,0.52c-0.3,0.28-0.62,0.54-0.95,0.79l-2.38-4.46
				c0.33-0.25,0.65-0.52,0.95-0.79C245.39,78.44,245.57,78.26,245.74,78.09"/>
			<path class="st15" d="M244.25,79.4l2.38,4.46c-0.64,0.49-1.33,0.93-2.08,1.33l-2.38-4.46C242.92,80.33,243.61,79.89,244.25,79.4"
				/>
			<path class="st7" d="M242.18,80.73l2.38,4.46c-0.83,0.44-1.72,0.83-2.68,1.17c-2.27,0.79-4.88,1.18-7.85,1.18
				c-2.56,0-4.91-0.27-7.05-0.82c-2.14-0.54-3.99-1.22-5.56-2.04c-1.56-0.82-2.78-1.7-3.64-2.66c-0.37-0.41-0.66-0.81-0.87-1.19
				l-2.38-4.46c0.2,0.38,0.49,0.78,0.87,1.19c0.86,0.96,2.08,1.85,3.64,2.66c1.57,0.82,3.42,1.49,5.56,2.04
				c2.14,0.54,4.49,0.82,7.05,0.82c2.96,0,5.58-0.4,7.85-1.18C240.46,81.56,241.35,81.18,242.18,80.73"/>
		</g>
	</g>
	<g>
		<g>
			<linearGradient id="SVGID_51_" gradientUnits="userSpaceOnUse" x1="62.0988" y1="77.9923" x2="62.0988" y2="15.8052">
				<stop  offset="5.618000e-03" style="stop-color:#08A1C8"/>
				<stop  offset="0.1207" style="stop-color:#0DA3C9"/>
				<stop  offset="0.2649" style="stop-color:#1DA8CD"/>
				<stop  offset="0.4245" style="stop-color:#36B0D2"/>
				<stop  offset="0.5954" style="stop-color:#5ABBDA"/>
				<stop  offset="0.7752" style="stop-color:#88CAE5"/>
				<stop  offset="0.9598" style="stop-color:#BFDCF1"/>
				<stop  offset="1" style="stop-color:#CCE0F4"/>
			</linearGradient>
			<path class="st37" d="M44.86,29.63c2.04,0,3.71,0.2,4.99,0.59c1.28,0.4,2.3,0.95,3.05,1.67c0.75,0.72,1.29,1.55,1.62,2.52
				c0.33,0.96,0.54,2.01,0.63,3.15c0.11,0.84,0.2,1.84,0.29,3c0.09,1.16,0.26,2.92,0.51,5.29c0.25,2.37,0.59,5.56,1.03,9.59
				c0.44,4.02,1.03,9.32,1.79,15.88c1.27-3.45,2.36-6.49,3.27-9.11c0.91-2.62,1.83-5.31,2.75-8.07c0.92-2.76,1.91-5.87,2.98-9.33
				c1.06-3.45,2.4-7.75,4.02-12.88c0.31-0.94,0.63-1.54,0.98-1.82c0.35-0.27,1.11-0.41,2.28-0.41c0.51,0,1.31,0.04,2.41,0.11
				c1.1,0.07,2.19,0.29,3.3,0.66c1.1,0.37,2.07,0.91,2.9,1.63c0.83,0.72,1.2,1.74,1.13,3.07c-0.07,1.18-0.51,3-1.34,5.44
				c-0.83,2.44-1.87,5.22-3.11,8.33c-1.25,3.11-2.62,6.35-4.11,9.73c-1.5,3.38-2.97,6.58-4.41,9.59c-1.45,3.01-2.76,5.65-3.94,7.92
				c-1.17,2.27-2.04,3.85-2.6,4.74c-0.62,0.94-1.64,1.41-3.07,1.41h-8.05c-1.28,0-2.32-0.23-3.14-0.7c-0.82-0.47-1.49-1.1-2-1.89
				c-0.52-0.79-0.93-1.69-1.23-2.7c-0.3-1.01-0.55-2.04-0.75-3.07c-1.34-7.01-2.49-13.09-3.45-18.25
				c-0.96-5.16-1.75-9.48-2.37-12.96c-0.62-3.48-1.08-6.15-1.39-8.03c-0.31-1.87-0.44-3.04-0.42-3.48c0.03-0.54,0.46-0.95,1.29-1.22
				C41.53,29.77,42.91,29.63,44.86,29.63z"/>
		</g>
		<g>
			<linearGradient id="SVGID_52_" gradientUnits="userSpaceOnUse" x1="97.612" y1="77.9923" x2="97.612" y2="15.8052">
				<stop  offset="5.618000e-03" style="stop-color:#08A1C8"/>
				<stop  offset="0.1207" style="stop-color:#0DA3C9"/>
				<stop  offset="0.2649" style="stop-color:#1DA8CD"/>
				<stop  offset="0.4245" style="stop-color:#36B0D2"/>
				<stop  offset="0.5954" style="stop-color:#5ABBDA"/>
				<stop  offset="0.7752" style="stop-color:#88CAE5"/>
				<stop  offset="0.9598" style="stop-color:#BFDCF1"/>
				<stop  offset="1" style="stop-color:#CCE0F4"/>
			</linearGradient>
			<path class="st38" d="M119.97,77.38c0.22,1.53,0.31,2.59,0.28,3.18c-0.04,0.69-0.23,1.16-0.58,1.41
				c-0.35,0.25-0.88,0.37-1.59,0.37h-3.91c-2.2,0-3.93-0.26-5.21-0.78c-1.27-0.52-2.23-1.27-2.86-2.26
				c-0.63-0.99-1.06-2.18-1.29-3.59c-0.23-1.41-0.39-3-0.5-4.78H90.98l-3.11,10.22c-0.3,0.79-0.91,1.18-1.83,1.18h-4.06
				c-0.82,0-1.66-0.08-2.52-0.26c-0.86-0.17-1.62-0.45-2.29-0.85c-0.67-0.4-1.21-0.9-1.64-1.52c-0.43-0.62-0.61-1.37-0.56-2.26
				c0.06-1.08,0.52-2.86,1.37-5.33c0.85-2.47,1.92-5.27,3.2-8.4c1.27-3.13,2.69-6.42,4.23-9.85c1.55-3.43,3.05-6.67,4.5-9.73
				c1.45-3.06,2.76-5.75,3.94-8.07c1.18-2.32,2.07-3.95,2.69-4.89c0.45-0.69,0.84-1.1,1.18-1.22c0.34-0.12,0.97-0.18,1.89-0.18h7.28
				c1.28,0,2.32,0.23,3.14,0.7c0.81,0.47,1.48,1.09,2,1.85c0.52,0.77,0.93,1.64,1.23,2.63c0.3,0.99,0.55,2,0.75,3.04
				c1.59,7.99,2.91,14.58,3.94,19.77c1.04,5.18,1.85,9.37,2.44,12.55C119.35,73.49,119.75,75.85,119.97,77.38z M94.34,60.21h8.82
				l-2.12-19.54L94.34,60.21"/>
		</g>
		<g>
			<linearGradient id="SVGID_53_" gradientUnits="userSpaceOnUse" x1="144.5771" y1="77.9923" x2="144.5771" y2="15.8052">
				<stop  offset="5.618000e-03" style="stop-color:#08A1C8"/>
				<stop  offset="0.1207" style="stop-color:#0DA3C9"/>
				<stop  offset="0.2649" style="stop-color:#1DA8CD"/>
				<stop  offset="0.4245" style="stop-color:#36B0D2"/>
				<stop  offset="0.5954" style="stop-color:#5ABBDA"/>
				<stop  offset="0.7752" style="stop-color:#88CAE5"/>
				<stop  offset="0.9598" style="stop-color:#BFDCF1"/>
				<stop  offset="1" style="stop-color:#CCE0F4"/>
			</linearGradient>
			<path class="st39" d="M150.68,29.04c2.61,0,4.93,0.27,6.97,0.82c2.04,0.54,3.76,1.31,5.16,2.29c1.4,0.99,2.46,2.2,3.17,3.63
				c0.71,1.43,1.02,3.04,0.92,4.81c-0.16,2.86-1.26,5.02-3.28,6.48c-2.03,1.45-4.8,2.18-8.33,2.18c-1.13,0-1.8-0.09-2.02-0.26
				c-0.22-0.17-0.34-0.53-0.36-1.07c-0.05-0.89-0.07-1.78-0.04-2.66c0.02-0.89-0.06-1.7-0.24-2.44c-0.19-0.74-0.55-1.33-1.09-1.78
				c-0.54-0.44-1.42-0.67-2.65-0.67c-2.5,0-4.54,0.69-6.1,2.07c-1.56,1.38-2.78,3.06-3.66,5.03c-0.88,1.98-1.48,4.01-1.8,6.11
				c-0.32,2.1-0.52,3.86-0.6,5.29c-0.13,2.37-0.09,4.36,0.12,5.96c0.22,1.61,0.59,2.91,1.12,3.92c0.53,1.01,1.19,1.73,1.99,2.15
				c0.79,0.42,1.73,0.63,2.8,0.63c1.94,0,3.6-0.4,4.97-1.18c1.37-0.79,2.25-2.22,2.62-4.3l0.69-4.15c0.23-1.43,0.5-2.6,0.81-3.51
				c0.31-0.91,0.95-1.37,1.92-1.37h4.21c1.28,0,2.3,0.14,3.08,0.41c0.78,0.27,1.37,0.72,1.77,1.33c0.4,0.62,0.65,1.42,0.75,2.41
				c0.1,0.99,0.1,2.2,0.02,3.63c-0.06,0.99-0.17,2.3-0.34,3.92c-0.17,1.63-0.36,3.28-0.58,4.96c-0.23,1.68-0.45,3.22-0.68,4.63
				c-0.23,1.41-0.42,2.38-0.55,2.92c-0.13,0.44-0.27,0.74-0.43,0.89c-0.16,0.15-0.47,0.22-0.93,0.22h-4.21
				c-2.66,0-4.53-0.53-5.62-1.59c-1.09-1.06-1.64-2.38-1.66-3.96c-0.66,1.68-1.93,3.15-3.81,4.41c-1.88,1.26-4.54,1.89-7.96,1.89
				c-1.99,0-3.91-0.38-5.76-1.15c-1.85-0.76-3.46-2.04-4.84-3.81c-1.38-1.78-2.44-4.15-3.16-7.11c-0.73-2.96-0.97-6.64-0.72-11.03
				c0.09-1.68,0.31-3.62,0.63-5.81c0.33-2.2,0.88-4.44,1.65-6.74c0.77-2.29,1.81-4.54,3.14-6.74c1.32-2.2,3.02-4.16,5.08-5.89
				c2.06-1.73,4.56-3.12,7.48-4.18C143.24,29.57,146.7,29.04,150.68,29.04z"/>
		</g>
		<g>
			<linearGradient id="SVGID_54_" gradientUnits="userSpaceOnUse" x1="188.8358" y1="77.9923" x2="188.8358" y2="15.8052">
				<stop  offset="5.618000e-03" style="stop-color:#08A1C8"/>
				<stop  offset="0.1207" style="stop-color:#0DA3C9"/>
				<stop  offset="0.2649" style="stop-color:#1DA8CD"/>
				<stop  offset="0.4245" style="stop-color:#36B0D2"/>
				<stop  offset="0.5954" style="stop-color:#5ABBDA"/>
				<stop  offset="0.7752" style="stop-color:#88CAE5"/>
				<stop  offset="0.9598" style="stop-color:#BFDCF1"/>
				<stop  offset="1" style="stop-color:#CCE0F4"/>
			</linearGradient>
			<path class="st40" d="M211.2,77.38c0.22,1.53,0.31,2.59,0.28,3.18c-0.04,0.69-0.23,1.16-0.58,1.41
				c-0.35,0.25-0.88,0.37-1.59,0.37h-3.91c-2.2,0-3.93-0.26-5.21-0.78c-1.28-0.52-2.23-1.27-2.86-2.26
				c-0.63-0.99-1.07-2.18-1.29-3.59c-0.22-1.41-0.39-3-0.5-4.78H182.2l-3.11,10.22c-0.3,0.79-0.91,1.18-1.83,1.18h-4.06
				c-0.82,0-1.66-0.08-2.51-0.26c-0.86-0.17-1.62-0.45-2.29-0.85c-0.67-0.4-1.22-0.9-1.64-1.52c-0.43-0.62-0.61-1.37-0.56-2.26
				c0.06-1.08,0.52-2.86,1.37-5.33c0.86-2.47,1.92-5.27,3.2-8.4c1.28-3.13,2.69-6.42,4.24-9.85c1.55-3.43,3.05-6.67,4.5-9.73
				c1.45-3.06,2.76-5.75,3.94-8.07c1.18-2.32,2.07-3.95,2.69-4.89c0.45-0.69,0.84-1.1,1.18-1.22c0.34-0.12,0.97-0.18,1.89-0.18h7.28
				c1.28,0,2.32,0.23,3.14,0.7c0.82,0.47,1.48,1.09,2,1.85c0.52,0.77,0.93,1.64,1.23,2.63c0.3,0.99,0.55,2,0.75,3.04
				c1.59,7.99,2.91,14.58,3.94,19.77c1.03,5.18,1.85,9.37,2.44,12.55C210.58,73.49,210.98,75.85,211.2,77.38z M185.57,60.21h8.82
				l-2.12-19.54L185.57,60.21"/>
		</g>
		<g>
			<linearGradient id="SVGID_55_" gradientUnits="userSpaceOnUse" x1="233.5654" y1="77.9923" x2="233.5654" y2="15.8052">
				<stop  offset="5.618000e-03" style="stop-color:#08A1C8"/>
				<stop  offset="0.1207" style="stop-color:#0DA3C9"/>
				<stop  offset="0.2649" style="stop-color:#1DA8CD"/>
				<stop  offset="0.4245" style="stop-color:#36B0D2"/>
				<stop  offset="0.5954" style="stop-color:#5ABBDA"/>
				<stop  offset="0.7752" style="stop-color:#88CAE5"/>
				<stop  offset="0.9598" style="stop-color:#BFDCF1"/>
				<stop  offset="1" style="stop-color:#CCE0F4"/>
			</linearGradient>
			<path class="st41" d="M239.38,29.04c4.8,0,8.31,1.01,10.52,3.04c2.21,2.02,3.23,4.66,3.04,7.92c-0.16,2.76-1.07,4.88-2.74,6.33
				c-1.67,1.45-3.98,2.18-6.94,2.18c-0.92,0-1.5-0.09-1.75-0.26c-0.25-0.17-0.35-0.53-0.32-1.07c0.03-0.49,0.03-1.14-0.01-1.93
				c-0.03-0.79-0.18-1.55-0.44-2.29c-0.27-0.74-0.72-1.37-1.35-1.89c-0.64-0.52-1.54-0.78-2.72-0.78c-1.64,0-3.12,0.48-4.45,1.44
				c-1.33,0.96-2.04,2.21-2.13,3.74c-0.08,1.33,0.39,2.42,1.39,3.26c1,0.84,2.27,1.62,3.81,2.33c1.54,0.72,3.23,1.44,5.05,2.18
				c1.82,0.74,3.49,1.72,5.01,2.92c1.51,1.21,2.75,2.72,3.69,4.52c0.95,1.8,1.34,4.09,1.19,6.85c-0.12,2.17-0.61,4.21-1.46,6.11
				c-0.85,1.9-2.04,3.55-3.58,4.96c-1.53,1.41-3.44,2.5-5.71,3.29c-2.27,0.79-4.88,1.18-7.85,1.18c-2.56,0-4.91-0.27-7.05-0.82
				c-2.14-0.54-3.99-1.22-5.56-2.04c-1.56-0.82-2.78-1.7-3.64-2.66c-0.87-0.96-1.28-1.84-1.23-2.63c0.18-3.26,0.51-5.6,0.97-7.03
				c0.46-1.43,1.21-2.15,2.23-2.15c0.72,0,1.45,0.3,2.21,0.89c0.76,0.59,1.63,1.26,2.61,2c0.98,0.74,2.13,1.41,3.45,2
				c1.32,0.59,2.88,0.89,4.67,0.89c0.71,0,1.42-0.06,2.12-0.19c0.7-0.12,1.32-0.33,1.87-0.63c0.55-0.3,1.01-0.69,1.37-1.18
				c0.36-0.49,0.56-1.09,0.6-1.78c0.07-1.23-0.36-2.22-1.29-2.96c-0.93-0.74-2.12-1.42-3.57-2.04c-1.45-0.62-3.01-1.26-4.68-1.92
				c-1.68-0.67-3.22-1.58-4.64-2.74c-1.42-1.16-2.56-2.65-3.43-4.48c-0.87-1.83-1.22-4.17-1.06-7.03c0.18-3.21,0.96-5.92,2.34-8.14
				c1.38-2.22,3.09-4.04,5.14-5.44c2.05-1.41,4.33-2.42,6.84-3.04C234.44,29.35,236.92,29.04,239.38,29.04z"/>
		</g>
	</g>
	<g class="st0">
		<defs>
			<path id="SVGID_56_" class="st0" d="M291.07,30.25l2.38,4.46c0.08,0.15,0.11,0.33,0.1,0.56l-2.38-4.46
				C291.18,30.58,291.15,30.4,291.07,30.25z"/>
		</defs>
		<clipPath id="SVGID_57_">
			<use xlink:href="#SVGID_56_"  style="overflow:visible;"/>
		</clipPath>
		<g class="st42">
			<path class="st43" d="M291.07,30.25l2.38,4.46c0.02,0.04,0.04,0.08,0.05,0.12l-2.38-4.46C291.11,30.33,291.09,30.29,291.07,30.25
				"/>
			<path class="st44" d="M291.12,30.37l2.38,4.46c0.04,0.12,0.06,0.27,0.05,0.44l-2.38-4.46C291.18,30.64,291.16,30.5,291.12,30.37"
				/>
		</g>
	</g>
	<g>
		<polygon class="st45" points="291.17,30.81 293.55,35.27 293,39.64 290.61,35.18 		"/>
	</g>
	<g>
		<polygon class="st46" points="284.51,40.14 286.89,44.6 276.31,44.6 273.93,40.14 		"/>
	</g>
	<g class="st0">
		<defs>
			<path id="SVGID_58_" class="st0" d="M290.61,35.18l2.38,4.46c-0.19,1.48-0.68,2.68-1.47,3.59c-0.79,0.91-2.34,1.37-4.64,1.37
				l-2.38-4.46c2.3,0,3.84-0.46,4.64-1.37C289.94,37.86,290.43,36.66,290.61,35.18z"/>
		</defs>
		<clipPath id="SVGID_59_">
			<use xlink:href="#SVGID_58_"  style="overflow:visible;"/>
		</clipPath>
		<g class="st47">
			<path class="st44" d="M290.61,35.18l2.38,4.46c0,0.01,0,0.03-0.01,0.04l-2.38-4.46C290.61,35.21,290.61,35.2,290.61,35.18"/>
			<path class="st43" d="M290.61,35.22l2.38,4.46c-0.09,0.65-0.23,1.25-0.43,1.79l-2.38-4.46
				C290.38,36.47,290.52,35.87,290.61,35.22"/>
			<path class="st48" d="M290.18,37.01l2.38,4.46c-0.12,0.31-0.25,0.6-0.4,0.87l-2.38-4.46C289.93,37.61,290.06,37.32,290.18,37.01"
				/>
			<path class="st49" d="M289.77,37.88l2.38,4.46c-0.12,0.22-0.26,0.43-0.41,0.62l-2.38-4.46C289.51,38.31,289.65,38.1,289.77,37.88
				"/>
			<path class="st50" d="M289.36,38.51l2.38,4.46c-0.07,0.09-0.14,0.18-0.22,0.27c-0.04,0.04-0.08,0.08-0.12,0.13l-2.38-4.46
				c0.04-0.04,0.08-0.08,0.12-0.13C289.22,38.69,289.29,38.6,289.36,38.51"/>
			<path class="st51" d="M289.03,38.9l2.38,4.46c-0.09,0.09-0.18,0.17-0.29,0.25l-2.38-4.46C288.85,39.07,288.94,38.99,289.03,38.9"
				/>
			<path class="st52" d="M288.74,39.15l2.38,4.46c-0.14,0.11-0.29,0.2-0.46,0.29l-2.38-4.46C288.45,39.35,288.6,39.26,288.74,39.15"
				/>
			<path class="st53" d="M288.29,39.44l2.38,4.46c-0.87,0.47-2.13,0.7-3.78,0.7l-2.38-4.46C286.15,40.14,287.41,39.91,288.29,39.44"
				/>
		</g>
	</g>
	<g>
		<polygon class="st54" points="273.93,40.14 276.31,44.6 274.96,55.04 272.57,50.58 		"/>
	</g>
	<g class="st0">
		<defs>
			<path id="SVGID_60_" class="st0" d="M284.53,51.05l2.38,4.46c0.08,0.15,0.11,0.34,0.1,0.57l-2.38-4.46
				C284.64,51.39,284.61,51.2,284.53,51.05z"/>
		</defs>
		<clipPath id="SVGID_61_">
			<use xlink:href="#SVGID_60_"  style="overflow:visible;"/>
		</clipPath>
		<g class="st55">
			<path class="st43" d="M284.53,51.05l2.38,4.46c0.02,0.04,0.04,0.08,0.05,0.12l-2.38-4.46C284.57,51.13,284.55,51.09,284.53,51.05
				"/>
			<path class="st44" d="M284.58,51.17l2.38,4.46c0.04,0.13,0.06,0.27,0.05,0.45l-2.38-4.46C284.64,51.45,284.62,51.3,284.58,51.17"
				/>
		</g>
	</g>
	<g>
		<polygon class="st45" points="284.63,51.62 287.01,56.08 286.46,60.45 284.08,55.99 		"/>
	</g>
	<g>
		<polygon class="st46" points="277.97,60.95 280.35,65.41 273.68,65.41 271.3,60.95 		"/>
	</g>
	<g class="st0">
		<defs>
			<path id="SVGID_62_" class="st0" d="M284.08,55.99l2.38,4.46c-0.19,1.48-0.68,2.68-1.47,3.59c-0.79,0.91-2.34,1.37-4.64,1.37
				l-2.38-4.46c2.3,0,3.85-0.46,4.64-1.37C283.4,58.66,283.89,57.47,284.08,55.99z"/>
		</defs>
		<clipPath id="SVGID_63_">
			<use xlink:href="#SVGID_62_"  style="overflow:visible;"/>
		</clipPath>
		<g class="st56">
			<path class="st44" d="M284.08,55.99l2.38,4.46c0,0.01,0,0.03-0.01,0.04l-2.38-4.46C284.07,56.01,284.07,56,284.08,55.99"/>
			<path class="st43" d="M284.07,56.03l2.38,4.46c-0.09,0.65-0.23,1.24-0.43,1.78l-2.38-4.46
				C283.84,57.27,283.98,56.68,284.07,56.03"/>
			<path class="st48" d="M283.64,57.81l2.38,4.46c-0.12,0.31-0.25,0.6-0.41,0.88l-2.38-4.46C283.39,58.41,283.52,58.12,283.64,57.81
				"/>
			<path class="st49" d="M283.23,58.69l2.38,4.46c-0.12,0.22-0.26,0.43-0.41,0.63l-2.38-4.46
				C282.97,59.12,283.11,58.91,283.23,58.69"/>
			<path class="st50" d="M282.82,59.31l2.38,4.46c-0.07,0.09-0.14,0.18-0.21,0.26c-0.04,0.04-0.08,0.08-0.12,0.13l-2.38-4.46
				c0.04-0.04,0.08-0.08,0.12-0.13C282.68,59.49,282.75,59.4,282.82,59.31"/>
			<path class="st51" d="M282.49,59.7l2.38,4.46c-0.09,0.09-0.18,0.17-0.29,0.25l-2.38-4.46C282.31,59.87,282.4,59.79,282.49,59.7"
				/>
			<path class="st52" d="M282.2,59.95l2.38,4.46c-0.14,0.11-0.29,0.2-0.46,0.29l-2.38-4.46C281.91,60.16,282.07,60.06,282.2,59.95"
				/>
			<path class="st53" d="M281.75,60.25l2.38,4.46c-0.87,0.47-2.13,0.7-3.78,0.7l-2.38-4.46C279.61,60.95,280.87,60.71,281.75,60.25"
				/>
		</g>
	</g>
	<g>
		<polygon class="st54" points="271.3,60.95 273.68,65.41 272.22,76.44 269.83,71.98 		"/>
	</g>
	<g class="st0">
		<defs>
			<path id="SVGID_64_" class="st0" d="M258.98,83.95l-2.38-4.46c0.24,0.46,0.56,0.86,0.94,1.22c1.17,1.09,3.18,1.63,6.04,1.63
				l2.38,4.46c-2.86,0-4.87-0.54-6.04-1.63C259.53,84.82,259.22,84.41,258.98,83.95z"/>
		</defs>
		<clipPath id="SVGID_65_">
			<use xlink:href="#SVGID_64_"  style="overflow:visible;"/>
		</clipPath>
		<g class="st57">
			<path class="st53" d="M263.58,82.34l2.38,4.46c-2.86,0-4.87-0.54-6.04-1.63c-0.38-0.36-0.7-0.76-0.94-1.22l-2.38-4.46
				c0.24,0.46,0.56,0.86,0.94,1.22C258.7,81.8,260.71,82.34,263.58,82.34"/>
		</g>
	</g>
	<g class="st0">
		<defs>
			<path id="SVGID_66_" class="st0" d="M287.77,72.51l2.38,4.46c0.08,0.14,0.11,0.31,0.1,0.5l-2.38-4.46
				C287.88,72.82,287.85,72.65,287.77,72.51z"/>
		</defs>
		<clipPath id="SVGID_67_">
			<use xlink:href="#SVGID_66_"  style="overflow:visible;"/>
		</clipPath>
		<g class="st58">
			<path class="st43" d="M287.77,72.51l2.38,4.46c0.02,0.04,0.04,0.08,0.05,0.12l-2.38-4.46C287.81,72.59,287.79,72.55,287.77,72.51
				"/>
			<path class="st44" d="M287.82,72.63l2.38,4.46c0.04,0.11,0.05,0.24,0.04,0.38l-2.38-4.46C287.87,72.87,287.86,72.74,287.82,72.63
				"/>
		</g>
	</g>
	<g>
		<polygon class="st45" points="287.87,73.01 290.25,77.47 289.7,81.84 287.31,77.38 		"/>
	</g>
	<g>
		<polygon class="st46" points="281.21,82.34 283.59,86.8 265.96,86.8 263.58,82.34 		"/>
	</g>
	<g class="st0">
		<defs>
			<path id="SVGID_68_" class="st0" d="M287.31,77.38l2.38,4.46c-0.19,1.48-0.68,2.68-1.47,3.59c-0.79,0.91-2.34,1.37-4.64,1.37
				l-2.38-4.46c2.3,0,3.85-0.45,4.64-1.37C286.64,80.06,287.13,78.86,287.31,77.38z"/>
		</defs>
		<clipPath id="SVGID_69_">
			<use xlink:href="#SVGID_68_"  style="overflow:visible;"/>
		</clipPath>
		<g class="st59">
			<path class="st44" d="M287.31,77.38l2.38,4.46c0,0.02,0,0.04-0.01,0.06l-2.38-4.46C287.31,77.42,287.31,77.4,287.31,77.38"/>
			<path class="st43" d="M287.31,77.44l2.38,4.46c-0.08,0.64-0.23,1.23-0.43,1.77l-2.38-4.46
				C287.08,78.67,287.22,78.08,287.31,77.44"/>
			<path class="st48" d="M286.88,79.21l2.38,4.46c-0.12,0.31-0.25,0.6-0.4,0.87l-2.38-4.46C286.63,79.81,286.76,79.52,286.88,79.21"
				/>
			<path class="st49" d="M286.47,80.08l2.38,4.46c-0.12,0.22-0.26,0.43-0.41,0.63l-2.38-4.46C286.21,80.51,286.35,80.3,286.47,80.08
				"/>
			<path class="st50" d="M286.06,80.71l2.38,4.46c-0.07,0.09-0.14,0.18-0.22,0.27c-0.04,0.04-0.08,0.09-0.12,0.13l-2.38-4.46
				c0.04-0.04,0.08-0.08,0.12-0.13C285.92,80.89,285.99,80.8,286.06,80.71"/>
			<path class="st51" d="M285.73,81.1l2.38,4.46c-0.09,0.09-0.18,0.17-0.28,0.25l-2.38-4.46C285.54,81.27,285.64,81.19,285.73,81.1"
				/>
			<path class="st52" d="M285.44,81.35l2.38,4.46c-0.14,0.11-0.29,0.2-0.45,0.29l-2.38-4.46C285.15,81.55,285.3,81.46,285.44,81.35"
				/>
			<path class="st53" d="M284.99,81.64l2.38,4.46c-0.87,0.47-2.13,0.7-3.78,0.7l-2.38-4.46C282.85,82.34,284.11,82.11,284.99,81.64"
				/>
		</g>
	</g>
	<g class="st0">
		<defs>
			<path id="SVGID_70_" class="st0" d="M316.14,42.39l2.38,4.46c-0.27-0.5-0.63-0.94-1.1-1.32c-0.64-0.52-1.54-0.78-2.72-0.78
				c-1.64,0-3.12,0.48-4.45,1.44c-1.33,0.96-2.04,2.21-2.13,3.74c-0.04,0.78,0.1,1.48,0.42,2.09l-2.38-4.46
				c-0.33-0.61-0.47-1.31-0.42-2.09c0.09-1.53,0.8-2.78,2.13-3.74c1.33-0.96,2.81-1.44,4.45-1.44c1.18,0,2.08,0.26,2.72,0.78
				C315.51,41.45,315.87,41.89,316.14,42.39z"/>
		</defs>
		<clipPath id="SVGID_71_">
			<use xlink:href="#SVGID_70_"  style="overflow:visible;"/>
		</clipPath>
		<g class="st60">
			<path class="st53" d="M316.14,42.39l2.38,4.46c-0.27-0.5-0.63-0.94-1.1-1.32c-0.64-0.52-1.54-0.78-2.72-0.78
				c-1.28,0-2.46,0.29-3.55,0.88l-2.38-4.46c1.09-0.58,2.27-0.88,3.55-0.88c1.18,0,2.08,0.26,2.72,0.78
				C315.51,41.45,315.87,41.89,316.14,42.39"/>
			<path class="st52" d="M308.78,41.17l2.38,4.46c-0.31,0.17-0.61,0.35-0.9,0.56c-0.05,0.04-0.1,0.07-0.15,0.11l-2.38-4.46
				c0.05-0.04,0.1-0.07,0.15-0.11C308.17,41.52,308.47,41.33,308.78,41.17"/>
			<path class="st51" d="M307.73,41.84l2.38,4.46c-0.22,0.17-0.42,0.35-0.61,0.53l-2.38-4.46
				C307.31,42.19,307.51,42.01,307.73,41.84"/>
			<path class="st50" d="M307.12,42.37l2.38,4.46c-0.16,0.16-0.31,0.33-0.44,0.5l-2.38-4.46C306.82,42.7,306.96,42.53,307.12,42.37"
				/>
			<path class="st49" d="M306.69,42.88l2.38,4.46c-0.13,0.17-0.25,0.35-0.35,0.53l-2.38-4.46
				C306.44,43.22,306.56,43.04,306.69,42.88"/>
			<path class="st48" d="M306.34,43.4l2.38,4.46c-0.12,0.2-0.21,0.42-0.3,0.64l-2.38-4.46C306.12,43.82,306.22,43.61,306.34,43.4"/>
			<path class="st43" d="M306.04,44.04l2.38,4.46c-0.12,0.33-0.21,0.68-0.26,1.05l-2.38-4.46
				C305.83,44.72,305.92,44.37,306.04,44.04"/>
			<path class="st44" d="M305.78,45.09l2.38,4.46c-0.02,0.13-0.03,0.26-0.04,0.39c-0.03,0.55,0.03,1.06,0.18,1.53L305.93,47
				c-0.15-0.47-0.21-0.98-0.18-1.53C305.76,45.34,305.77,45.21,305.78,45.09"/>
			<path class="st43" d="M305.93,47l2.38,4.46c0.06,0.2,0.14,0.38,0.24,0.56l-2.38-4.46C306.08,47.39,306,47.2,305.93,47"/>
		</g>
	</g>
	<g class="st0">
		<defs>
			<path id="SVGID_72_" class="st0" d="M327.52,34.57l2.38,4.46c0.83,1.56,1.19,3.37,1.08,5.42c-0.16,2.76-1.07,4.88-2.73,6.33
				c-1.67,1.45-3.99,2.18-6.95,2.18c-0.92,0-1.5-0.09-1.75-0.26c-0.08-0.06-0.15-0.13-0.2-0.23l-2.38-4.46
				c0.05,0.09,0.12,0.17,0.2,0.23c0.25,0.17,0.83,0.26,1.75,0.26c2.96,0,5.28-0.73,6.95-2.18c1.67-1.45,2.58-3.57,2.73-6.33
				C328.71,37.94,328.35,36.14,327.52,34.57z"/>
		</defs>
		<clipPath id="SVGID_73_">
			<use xlink:href="#SVGID_72_"  style="overflow:visible;"/>
		</clipPath>
		<g class="st61">
			<path class="st43" d="M327.52,34.57l2.38,4.46c0.24,0.45,0.44,0.92,0.6,1.41l-2.38-4.46C327.96,35.49,327.76,35.02,327.52,34.57"
				/>
			<path class="st44" d="M328.12,35.98l2.38,4.46c0.4,1.21,0.56,2.55,0.48,4.01c-0.02,0.34-0.05,0.67-0.09,0.99l-2.38-4.46
				c0.04-0.32,0.07-0.65,0.09-0.99C328.68,38.53,328.52,37.2,328.12,35.98"/>
			<path class="st43" d="M328.5,40.98l2.38,4.46c-0.11,0.83-0.29,1.59-0.55,2.28l-2.38-4.46C328.21,42.57,328.4,41.81,328.5,40.98"
				/>
			<path class="st48" d="M327.95,43.26l2.38,4.46c-0.15,0.41-0.33,0.79-0.54,1.15l-2.38-4.46C327.62,44.05,327.8,43.67,327.95,43.26
				"/>
			<path class="st49" d="M327.42,44.41l2.38,4.46c-0.17,0.3-0.35,0.58-0.55,0.84l-2.38-4.46C327.07,44.99,327.25,44.71,327.42,44.41
				"/>
			<path class="st50" d="M326.86,45.26l2.38,4.46c-0.19,0.25-0.4,0.49-0.62,0.71l-2.38-4.46C326.47,45.74,326.67,45.51,326.86,45.26
				"/>
			<path class="st51" d="M326.24,45.97l2.38,4.46c-0.12,0.12-0.25,0.24-0.38,0.36c-0.12,0.11-0.25,0.21-0.38,0.31l-2.38-4.46
				c0.13-0.1,0.26-0.2,0.38-0.31C325.99,46.21,326.12,46.09,326.24,45.97"/>
			<path class="st52" d="M325.49,46.63l2.38,4.46c-0.33,0.25-0.68,0.48-1.06,0.68l-2.38-4.46C324.8,47.11,325.16,46.89,325.49,46.63
				"/>
			<path class="st53" d="M324.43,47.32l2.38,4.46c-1.48,0.8-3.32,1.19-5.51,1.19c-0.92,0-1.5-0.09-1.75-0.26
				c-0.08-0.06-0.15-0.13-0.2-0.23l-2.38-4.46c0.05,0.09,0.12,0.17,0.2,0.23c0.25,0.17,0.83,0.26,1.75,0.26
				C321.11,48.51,322.94,48.11,324.43,47.32"/>
		</g>
	</g>
	<g class="st0">
		<defs>
			<path id="SVGID_74_" class="st0" d="M311.55,65.87l2.38,4.46c-0.21-0.4-0.52-0.76-0.91-1.07c-0.93-0.74-2.12-1.42-3.57-2.04
				c-1.45-0.62-3.01-1.26-4.68-1.92c-1.68-0.67-3.22-1.58-4.64-2.74c-1.25-1.02-2.28-2.3-3.1-3.83l-2.38-4.46
				c0.82,1.53,1.85,2.81,3.1,3.83c1.42,1.16,2.96,2.07,4.64,2.74c1.67,0.67,3.24,1.31,4.68,1.92c1.45,0.62,2.64,1.3,3.57,2.04
				C311.03,65.11,311.33,65.47,311.55,65.87z"/>
		</defs>
		<clipPath id="SVGID_75_">
			<use xlink:href="#SVGID_74_"  style="overflow:visible;"/>
		</clipPath>
		<g class="st62">
			<path class="st53" d="M311.55,65.87l2.38,4.46c-0.21-0.4-0.52-0.76-0.91-1.07c-0.93-0.74-2.12-1.42-3.57-2.04
				c-1.45-0.62-3.01-1.26-4.68-1.92c-1.68-0.67-3.22-1.58-4.64-2.74c-1.25-1.02-2.28-2.3-3.1-3.83l-2.38-4.46
				c0.82,1.53,1.85,2.81,3.1,3.83c1.42,1.16,2.96,2.07,4.64,2.74c1.67,0.67,3.24,1.31,4.68,1.92c1.45,0.62,2.64,1.3,3.57,2.04
				C311.03,65.11,311.33,65.47,311.55,65.87"/>
		</g>
	</g>
	<g class="st0">
		<defs>
			<path id="SVGID_76_" class="st0" d="M324.66,60.59l2.38,4.46c0.02,0.03,0.03,0.06,0.05,0.09c0.94,1.8,1.34,4.09,1.18,6.85
				c-0.12,2.17-0.61,4.21-1.46,6.11c-0.85,1.9-2.04,3.55-3.58,4.96c-1.53,1.41-3.44,2.5-5.7,3.29c-2.27,0.79-4.88,1.18-7.85,1.18
				c-2.55,0-4.91-0.27-7.05-0.82c-2.14-0.54-3.99-1.22-5.56-2.04c-1.56-0.82-2.78-1.7-3.64-2.66c-0.37-0.41-0.66-0.81-0.87-1.19
				l-2.38-4.46c0.2,0.38,0.49,0.78,0.87,1.19c0.86,0.96,2.08,1.85,3.64,2.66c1.57,0.82,3.42,1.49,5.56,2.04
				c2.14,0.54,4.49,0.82,7.05,0.82c2.96,0,5.58-0.4,7.85-1.18c2.27-0.79,4.17-1.89,5.71-3.29c1.54-1.41,2.73-3.06,3.58-4.96
				c0.85-1.9,1.33-3.93,1.46-6.11c0.16-2.76-0.24-5.04-1.18-6.85C324.69,60.66,324.67,60.63,324.66,60.59z"/>
		</defs>
		<clipPath id="SVGID_77_">
			<use xlink:href="#SVGID_76_"  style="overflow:visible;"/>
		</clipPath>
		<g class="st63">
			<path class="st43" d="M324.66,60.59l2.38,4.46c0.02,0.03,0.03,0.06,0.05,0.09c0.23,0.45,0.43,0.92,0.6,1.43l-2.38-4.46
				c-0.17-0.51-0.37-0.98-0.6-1.43C324.69,60.66,324.67,60.63,324.66,60.59"/>
			<path class="st44" d="M325.31,62.12l2.38,4.46c0.51,1.53,0.7,3.34,0.58,5.42c-0.03,0.47-0.07,0.92-0.13,1.38l-2.38-4.46
				c0.06-0.45,0.1-0.91,0.13-1.38C326.01,65.46,325.81,63.65,325.31,62.12"/>
			<path class="st43" d="M325.76,68.91l2.38,4.46c-0.17,1.31-0.48,2.57-0.94,3.78l-2.38-4.46
				C325.28,71.48,325.59,70.22,325.76,68.91"/>
			<path class="st48" d="M324.83,72.69l2.38,4.46c-0.12,0.32-0.25,0.64-0.39,0.96c-0.2,0.45-0.42,0.88-0.66,1.3l-2.38-4.46
				c0.24-0.42,0.46-0.85,0.66-1.3C324.57,73.33,324.71,73.01,324.83,72.69"/>
			<path class="st49" d="M323.78,74.94l2.38,4.46c-0.33,0.58-0.7,1.14-1.1,1.67l-2.38-4.46C323.08,76.08,323.45,75.53,323.78,74.94"
				/>
			<path class="st50" d="M322.68,76.61l2.38,4.46c-0.39,0.52-0.82,1.01-1.28,1.47l-2.38-4.46
				C321.86,77.62,322.29,77.13,322.68,76.61"/>
			<path class="st51" d="M321.4,78.09l2.38,4.46c-0.17,0.18-0.35,0.35-0.54,0.52c-0.3,0.28-0.62,0.54-0.95,0.79l-2.38-4.46
				c0.33-0.25,0.65-0.52,0.95-0.79C321.04,78.43,321.22,78.26,321.4,78.09"/>
			<path class="st52" d="M319.91,79.4l2.38,4.46c-0.64,0.49-1.33,0.93-2.08,1.33l-2.38-4.46C318.58,80.33,319.27,79.89,319.91,79.4"
				/>
			<path class="st53" d="M317.83,80.73l2.38,4.46c-0.83,0.44-1.72,0.83-2.68,1.17c-2.27,0.79-4.88,1.18-7.85,1.18
				c-2.55,0-4.91-0.27-7.05-0.82c-2.14-0.54-3.99-1.22-5.56-2.04c-1.56-0.82-2.78-1.7-3.64-2.66c-0.37-0.41-0.66-0.81-0.87-1.19
				l-2.38-4.46c0.2,0.38,0.49,0.78,0.87,1.19c0.86,0.96,2.08,1.85,3.64,2.66c1.57,0.82,3.42,1.49,5.56,2.04
				c2.14,0.54,4.49,0.82,7.05,0.82c2.96,0,5.58-0.4,7.85-1.18C316.11,81.56,317,81.18,317.83,80.73"/>
		</g>
	</g>
	<g>
		<g>
			<linearGradient id="SVGID_78_" gradientUnits="userSpaceOnUse" x1="273.5576" y1="75.8283" x2="273.5576" y2="10.3329">
				<stop  offset="5.618000e-03" style="stop-color:#DC7495"/>
				<stop  offset="0.1471" style="stop-color:#DD7999"/>
				<stop  offset="0.3242" style="stop-color:#E189A5"/>
				<stop  offset="0.5202" style="stop-color:#E8A2B8"/>
				<stop  offset="0.73" style="stop-color:#F1C6D3"/>
				<stop  offset="0.9484" style="stop-color:#FCF3F6"/>
				<stop  offset="1" style="stop-color:#FFFFFF"/>
			</linearGradient>
			<path class="st64" d="M290,29.78c0.31,0,0.58,0.07,0.83,0.22c0.25,0.15,0.36,0.42,0.34,0.82l-0.55,4.37
				c-0.19,1.48-0.68,2.68-1.47,3.59c-0.79,0.91-2.34,1.37-4.64,1.37h-10.58l-1.36,10.44h10.89c0.31,0,0.58,0.07,0.83,0.22
				c0.24,0.15,0.36,0.42,0.34,0.82l-0.55,4.37c-0.19,1.48-0.68,2.68-1.47,3.59c-0.79,0.91-2.34,1.37-4.64,1.37h-6.67l-1.47,11.03
				h16.86c0.31,0,0.58,0.09,0.83,0.26s0.36,0.43,0.34,0.78l-0.55,4.37c-0.19,1.48-0.68,2.68-1.47,3.59
				c-0.79,0.91-2.34,1.37-4.64,1.37h-17.63c-2.86,0-4.87-0.54-6.04-1.63c-1.17-1.08-1.69-2.64-1.58-4.67
				c0.06-0.99,0.23-2.67,0.52-5.07c0.29-2.39,0.64-5.12,1.07-8.18c0.43-3.06,0.87-6.29,1.31-9.7c0.45-3.4,0.88-6.61,1.31-9.62
				c0.43-3.01,0.78-5.65,1.06-7.92c0.28-2.27,0.45-3.83,0.49-4.67c0.04-0.74,0.47-1.11,1.29-1.11H290z"/>
		</g>
		<g>
			<linearGradient id="SVGID_79_" gradientUnits="userSpaceOnUse" x1="309.2206" y1="75.8283" x2="309.2206" y2="10.3329">
				<stop  offset="5.618000e-03" style="stop-color:#DC7495"/>
				<stop  offset="0.1471" style="stop-color:#DD7999"/>
				<stop  offset="0.3242" style="stop-color:#E189A5"/>
				<stop  offset="0.5202" style="stop-color:#E8A2B8"/>
				<stop  offset="0.73" style="stop-color:#F1C6D3"/>
				<stop  offset="0.9484" style="stop-color:#FCF3F6"/>
				<stop  offset="1" style="stop-color:#FFFFFF"/>
			</linearGradient>
			<path class="st65" d="M315.03,29.04c4.81,0,8.31,1.01,10.52,3.04c2.21,2.02,3.23,4.66,3.04,7.92c-0.16,2.76-1.07,4.88-2.73,6.33
				c-1.67,1.45-3.99,2.18-6.95,2.18c-0.92,0-1.5-0.09-1.75-0.26c-0.25-0.17-0.35-0.53-0.32-1.07c0.03-0.49,0.03-1.14,0-1.93
				c-0.03-0.79-0.18-1.55-0.45-2.29c-0.27-0.74-0.72-1.37-1.35-1.89c-0.64-0.52-1.54-0.78-2.72-0.78c-1.64,0-3.12,0.48-4.45,1.44
				c-1.33,0.96-2.04,2.21-2.13,3.74c-0.08,1.33,0.39,2.42,1.39,3.26c1,0.84,2.27,1.62,3.81,2.33c1.55,0.72,3.23,1.44,5.05,2.18
				c1.82,0.74,3.49,1.72,5.01,2.92c1.51,1.21,2.75,2.72,3.69,4.52c0.94,1.8,1.34,4.09,1.18,6.85c-0.12,2.17-0.61,4.21-1.46,6.11
				c-0.85,1.9-2.04,3.55-3.58,4.96c-1.53,1.41-3.44,2.5-5.71,3.29c-2.27,0.79-4.88,1.18-7.85,1.18c-2.55,0-4.91-0.27-7.05-0.82
				c-2.14-0.54-3.99-1.22-5.56-2.04c-1.56-0.82-2.78-1.7-3.64-2.66c-0.87-0.96-1.28-1.84-1.23-2.63c0.18-3.26,0.51-5.6,0.97-7.03
				c0.46-1.43,1.21-2.15,2.23-2.15c0.72,0,1.45,0.3,2.21,0.89c0.76,0.59,1.63,1.26,2.61,2c0.98,0.74,2.13,1.41,3.45,2
				c1.32,0.59,2.88,0.89,4.67,0.89c0.71,0,1.42-0.06,2.12-0.19c0.7-0.12,1.32-0.33,1.87-0.63c0.55-0.3,1.01-0.69,1.37-1.18
				c0.36-0.49,0.56-1.09,0.6-1.78c0.07-1.23-0.36-2.22-1.29-2.96c-0.93-0.74-2.12-1.42-3.57-2.04c-1.45-0.62-3.01-1.26-4.68-1.92
				c-1.68-0.67-3.22-1.58-4.64-2.74c-1.42-1.16-2.56-2.65-3.43-4.48c-0.87-1.83-1.22-4.17-1.06-7.03c0.18-3.21,0.96-5.92,2.34-8.14
				c1.38-2.22,3.09-4.04,5.14-5.44c2.05-1.41,4.33-2.42,6.84-3.04C310.09,29.35,312.58,29.04,315.03,29.04z"/>
		</g>
	</g>
	<g>
		<g class="st0">
			<g class="st0">
				<defs>
					<path id="SVGID_80_" class="st0" d="M35.55,40.95l2.38,4.46c0.24,0.45,0.36,0.96,0.33,1.51l-2.38-4.46
						C35.91,41.91,35.79,41.39,35.55,40.95z"/>
				</defs>
				<clipPath id="SVGID_81_">
					<use xlink:href="#SVGID_80_"  style="overflow:visible;"/>
				</clipPath>
				<g class="st66">
					<path class="st43" d="M35.55,40.95l2.38,4.46c0.08,0.14,0.14,0.3,0.19,0.45l-2.38-4.46C35.69,41.24,35.63,41.09,35.55,40.95"/>
					<path class="st44" d="M35.74,41.4l2.38,4.46c0.11,0.33,0.16,0.69,0.14,1.06l-2.38-4.46C35.9,42.09,35.85,41.73,35.74,41.4"/>
				</g>
			</g>
			<g>
				<polygon class="st45" points="35.88,42.46 38.26,46.92 37.75,55.93 35.37,51.47 				"/>
			</g>
			<g class="st0">
				<defs>
					<path id="SVGID_82_" class="st0" d="M8.72,70l-2.38-4.46c0.49,0.92,1.48,1.54,2.66,1.54l2.38,4.46
						C10.2,71.54,9.21,70.92,8.72,70z"/>
				</defs>
				<clipPath id="SVGID_83_">
					<use xlink:href="#SVGID_82_"  style="overflow:visible;"/>
				</clipPath>
				<g class="st67">
					<path class="st53" d="M8.99,67.09l2.38,4.46c-1.18,0-2.17-0.62-2.66-1.54l-2.38-4.46C6.82,66.46,7.82,67.09,8.99,67.09"/>
				</g>
			</g>
			<g>
				<polygon class="st46" points="18.32,67.09 20.7,71.54 11.37,71.54 8.99,67.09 				"/>
			</g>
			<g class="st0">
				<defs>
					<path id="SVGID_84_" class="st0" d="M47.36,53.01l2.38,4.46c0.24,0.45,0.36,0.96,0.33,1.51l-2.38-4.46
						C47.72,53.97,47.6,53.45,47.36,53.01z"/>
				</defs>
				<clipPath id="SVGID_85_">
					<use xlink:href="#SVGID_84_"  style="overflow:visible;"/>
				</clipPath>
				<g class="st68">
					<path class="st43" d="M47.36,53.01l2.38,4.46c0.08,0.14,0.14,0.3,0.19,0.45l-2.38-4.46C47.5,53.3,47.44,53.15,47.36,53.01"/>
					<path class="st44" d="M47.55,53.46l2.38,4.46c0.11,0.33,0.16,0.69,0.14,1.06l-2.38-4.46C47.71,54.15,47.66,53.79,47.55,53.46"
						/>
				</g>
			</g>
			<g>
				<polygon class="st45" points="47.69,54.52 50.07,58.98 49.53,68.49 47.15,64.04 				"/>
			</g>
			<g class="st0">
				<defs>
					<path id="SVGID_86_" class="st0" d="M20.52,82.06l-2.38-4.46c0.49,0.92,1.48,1.54,2.66,1.54l2.38,4.46
						C22.01,83.6,21.02,82.98,20.52,82.06z"/>
				</defs>
				<clipPath id="SVGID_87_">
					<use xlink:href="#SVGID_86_"  style="overflow:visible;"/>
				</clipPath>
				<g class="st69">
					<path class="st53" d="M20.8,79.15l2.38,4.46c-1.18,0-2.17-0.62-2.66-1.54l-2.38-4.46C18.63,78.53,19.62,79.15,20.8,79.15"/>
				</g>
			</g>
			<g>
				<polygon class="st46" points="43.82,67.09 46.2,71.54 36.87,71.54 34.49,67.09 				"/>
			</g>
			<g class="st0">
				<defs>
					<path id="SVGID_88_" class="st0" d="M47.15,64.04l2.38,4.46c-0.1,1.68-1.58,3.05-3.33,3.05l-2.38-4.46
						C45.57,67.09,47.05,65.72,47.15,64.04z"/>
				</defs>
				<clipPath id="SVGID_89_">
					<use xlink:href="#SVGID_88_"  style="overflow:visible;"/>
				</clipPath>
				<g class="st70">
					<path class="st44" d="M47.15,64.04l2.38,4.46c0,0.07-0.01,0.15-0.02,0.22l-2.38-4.46C47.14,64.18,47.15,64.11,47.15,64.04"/>
					<path class="st43" d="M47.13,64.25l2.38,4.46c-0.03,0.23-0.09,0.46-0.17,0.68l-2.38-4.46C47.04,64.71,47.1,64.49,47.13,64.25"
						/>
					<path class="st48" d="M46.96,64.93l2.38,4.46c-0.06,0.16-0.13,0.31-0.21,0.45l-2.38-4.46C46.83,65.24,46.9,65.09,46.96,64.93"
						/>
					<path class="st49" d="M46.75,65.38l2.38,4.46c-0.07,0.13-0.15,0.25-0.24,0.37l-2.38-4.46C46.6,65.63,46.68,65.51,46.75,65.38"
						/>
					<path class="st50" d="M46.51,65.75l2.38,4.46c-0.09,0.12-0.18,0.23-0.29,0.33l-2.38-4.46C46.32,65.98,46.42,65.87,46.51,65.75"
						/>
					<path class="st51" d="M46.22,66.08l2.38,4.46c-0.11,0.11-0.23,0.21-0.35,0.31l-2.38-4.46C45.99,66.29,46.11,66.19,46.22,66.08"
						/>
					<path class="st52" d="M45.87,66.39l2.38,4.46c-0.15,0.11-0.3,0.21-0.46,0.3l-2.38-4.46C45.57,66.6,45.73,66.5,45.87,66.39"/>
					<path class="st53" d="M45.41,66.69l2.38,4.46c-0.47,0.25-1.02,0.4-1.58,0.4l-2.38-4.46C44.39,67.09,44.93,66.94,45.41,66.69"/>
				</g>
			</g>
			<g>
				<polygon class="st45" points="34.49,67.09 36.87,71.54 36.36,80.55 33.98,76.1 				"/>
			</g>
			<g>
				<polygon class="st46" points="30.65,79.15 33.04,83.6 23.18,83.6 20.8,79.15 				"/>
			</g>
			<g>
				<linearGradient id="SVGID_90_" gradientUnits="userSpaceOnUse" x1="26.8459" y1="77.5595" x2="26.8459" y2="30.7985">
					<stop  offset="5.618000e-03" style="stop-color:#DC7495"/>
					<stop  offset="0.1471" style="stop-color:#DD7999"/>
					<stop  offset="0.3242" style="stop-color:#E189A5"/>
					<stop  offset="0.5202" style="stop-color:#E8A2B8"/>
					<stop  offset="0.73" style="stop-color:#F1C6D3"/>
					<stop  offset="0.9484" style="stop-color:#FCF3F6"/>
					<stop  offset="1" style="stop-color:#FFFFFF"/>
				</linearGradient>
				<path class="st71" d="M32.9,39.41c1.74,0,3.08,1.37,2.98,3.05l-0.51,9.01h9.33c1.74,0,3.08,1.37,2.98,3.05l-0.54,9.52
					c-0.1,1.68-1.58,3.05-3.33,3.05h-9.33l-0.51,9.01c-0.1,1.68-1.58,3.05-3.33,3.05H20.8c-1.74,0-3.08-1.37-2.99-3.05l0.51-9.01
					H8.99c-1.74,0-3.08-1.37-2.99-3.05l0.54-9.52c0.1-1.68,1.59-3.05,3.33-3.05h9.33l0.51-9.01c0.1-1.68,1.59-3.05,3.33-3.05H32.9z"
					/>
			</g>
			<g class="st0">
				<defs>
					<path id="SVGID_91_" class="st0" d="M33.98,76.1l2.38,4.46c-0.1,1.68-1.58,3.05-3.33,3.05l-2.38-4.46
						C32.4,79.15,33.89,77.78,33.98,76.1z"/>
				</defs>
				<clipPath id="SVGID_92_">
					<use xlink:href="#SVGID_91_"  style="overflow:visible;"/>
				</clipPath>
				<g class="st72">
					<path class="st44" d="M33.98,76.1l2.38,4.46c0,0.07-0.01,0.15-0.02,0.22l-2.38-4.46C33.97,76.24,33.98,76.17,33.98,76.1"/>
					<path class="st43" d="M33.96,76.32l2.38,4.46c-0.03,0.23-0.09,0.46-0.17,0.68l-2.38-4.46C33.87,76.78,33.93,76.55,33.96,76.32"
						/>
					<path class="st48" d="M33.79,76.99l2.38,4.46c-0.06,0.16-0.13,0.31-0.21,0.45l-2.38-4.46C33.66,77.3,33.73,77.15,33.79,76.99"
						/>
					<path class="st49" d="M33.58,77.44l2.38,4.46c-0.07,0.13-0.15,0.25-0.24,0.37l-2.38-4.46C33.43,77.69,33.51,77.57,33.58,77.44"
						/>
					<path class="st50" d="M33.34,77.81l2.38,4.46c-0.09,0.12-0.18,0.23-0.29,0.33l-2.38-4.46C33.15,78.04,33.25,77.93,33.34,77.81"
						/>
					<path class="st51" d="M33.05,78.14l2.38,4.46c-0.11,0.11-0.23,0.21-0.35,0.31l-2.38-4.46C32.83,78.35,32.94,78.25,33.05,78.14"
						/>
					<path class="st52" d="M32.7,78.45l2.38,4.46c-0.15,0.11-0.3,0.21-0.46,0.3l-2.38-4.46C32.4,78.66,32.56,78.56,32.7,78.45"/>
					<path class="st53" d="M32.24,78.75l2.38,4.46c-0.47,0.25-1.02,0.4-1.58,0.4l-2.38-4.46C31.22,79.15,31.76,79,32.24,78.75"/>
				</g>
			</g>
		</g>
	</g>
</g>
</svg>
